<svg width="63" height="18" viewBox="0 0 63 18" fill="none" xmlns="http://www.w3.org/2000/svg">
<path d="M3.7677 10.4712C2.2526 9.74582 2.25259 7.58882 3.76769 6.86341L12.8127 2.53284C14.1402 1.89724 15.6764 2.8649 15.6764 4.33674L15.6764 12.9979C15.6764 14.4697 14.1402 15.4374 12.8127 14.8018L3.7677 10.4712Z" fill="#7A7A7A"/>
<path d="M31.566 10.0199C30.4297 9.47587 30.4297 7.85812 31.566 7.31406L38.3498 4.06613C39.3454 3.58944 40.4975 4.31518 40.4975 5.41906L40.4975 11.9149C40.4975 13.0188 39.3454 13.7445 38.3498 13.2679L31.566 10.0199Z" fill="#7A7A7A" fill-opacity="0.5"/>
<path d="M54.138 9.56862C53.3804 9.20592 53.3804 8.12742 54.138 7.76472L58.6605 5.59943C59.3243 5.28163 60.0923 5.76546 60.0923 6.50138L60.0923 10.832C60.0923 11.5679 59.3243 12.0517 58.6605 11.7339L54.138 9.56862Z" fill="#7A7A7A" fill-opacity="0.25"/>
</svg>
