<svg width="1284" height="286" viewBox="0 0 1284 286" fill="none" xmlns="http://www.w3.org/2000/svg">
<path d="M23.471 197.913H17.8856V155.585H2.96193V150.349H38.7438V155.585H23.471V197.913ZM64.359 164.487C68.4899 164.487 71.719 165.68 74.0463 168.065C76.4317 170.393 77.6244 173.651 77.6244 177.84V197.913H72.2135V178.887C72.2135 175.92 71.4572 173.622 69.9444 171.993C68.4317 170.364 66.279 169.549 63.4863 169.549H52.0535V197.913H46.6426V148.516H52.0535V164.487H64.359ZM100.531 164.487C105.127 164.487 108.851 165.884 111.702 168.676C114.553 171.411 116.007 175.135 116.065 179.847C116.065 180.662 116.036 181.302 115.978 181.767C115.978 182.233 115.92 182.931 115.804 183.862H89.5344C89.9417 187.004 91.1635 189.476 93.1999 191.28C95.2944 193.084 98.029 193.985 101.404 193.985C103.382 193.985 105.302 193.84 107.164 193.549C109.025 193.2 111.062 192.735 113.273 192.153L114.233 196.691C112.022 197.331 109.898 197.855 107.862 198.262C105.884 198.727 103.673 198.96 101.229 198.96C98.4944 198.96 96.0217 198.524 93.8108 197.651C91.6581 196.778 89.8253 195.585 88.3126 194.073C86.8581 192.56 85.7235 190.756 84.909 188.662C84.1526 186.509 83.7744 184.182 83.7744 181.68C83.7744 179.062 84.1817 176.705 84.9962 174.611C85.869 172.516 87.0326 170.713 88.4872 169.2C89.9999 167.687 91.7744 166.524 93.8108 165.709C95.8472 164.895 98.0872 164.487 100.531 164.487ZM100.618 169.025C97.3599 169.025 94.7417 169.985 92.7635 171.905C90.7853 173.767 89.6508 176.298 89.3599 179.498H111.091C110.974 176.182 109.956 173.622 108.036 171.818C106.116 169.956 103.644 169.025 100.618 169.025Z" fill="white"/>
<path d="M207 62.32C217.24 62.32 226.627 63.9491 235.16 67.2073C243.848 70.3103 251.218 74.8097 257.269 80.7055C263.475 86.4461 268.285 93.5055 271.698 101.884C275.112 110.262 276.818 119.648 276.818 130.044C276.818 140.594 275.112 150.136 271.698 158.669C268.285 167.047 263.553 174.262 257.502 180.313C251.451 186.208 244.236 190.785 235.858 194.044C227.48 197.147 218.326 198.698 208.396 198.698H156.964V62.32H207ZM208.396 159.367C216.464 159.367 223.058 156.807 228.178 151.687C233.298 146.412 235.858 139.198 235.858 130.044C235.858 121.2 233.221 114.296 227.945 109.331C222.67 104.366 215.688 101.884 207 101.884H197.225V159.135C199.242 159.29 201.182 159.367 203.044 159.367C204.905 159.367 206.69 159.367 208.396 159.367ZM395.865 113.287V148.196H340.243V158.436H402.381V197.767H300.214V63.4836H402.381V103.047H340.243V113.287H395.865ZM425.714 197.767V63.4836H465.743V158.669H524.39V197.767H425.714Z" fill="url(#paint0_linear_67_8)"/>
<path d="M1076.52 197.767H1036.26V103.047H1002.98V63.4836H1110.73V103.047H1076.52V197.767ZM1169.42 197.767H1124.73L1185.94 62.7854H1215.5L1276.7 197.767H1232.02L1220.62 172.167H1180.82L1169.42 197.767ZM1189.2 142.611H1211.54L1200.6 109.098L1189.2 142.611Z" fill="url(#paint1_linear_67_8)"/>
<rect x="516" y="159" width="472" height="39" fill="url(#paint2_linear_67_8)"/>
<defs>
<linearGradient id="paint0_linear_67_8" x1="143" y1="143" x2="532" y2="143" gradientUnits="userSpaceOnUse">
<stop stop-color="white"/>
<stop offset="1" stop-color="white"/>
</linearGradient>
<linearGradient id="paint1_linear_67_8" x1="996" y1="61" x2="1273" y2="198" gradientUnits="userSpaceOnUse">
<stop offset="0.220532" stop-color="white"/>
<stop offset="1" stop-color="white" stop-opacity="0"/>
</linearGradient>
<linearGradient id="paint2_linear_67_8" x1="516" y1="178.5" x2="988" y2="178.5" gradientUnits="userSpaceOnUse">
<stop stop-color="white"/>
<stop offset="1" stop-color="white"/>
</linearGradient>
</defs>
</svg>
