<svg width="591" height="20" viewBox="0 0 591 20" fill="none" xmlns="http://www.w3.org/2000/svg">
<path d="M274.594 12.32C274.658 12.32 274.712 12.3467 274.754 12.4C274.797 12.4427 274.818 12.496 274.818 12.56V13.776C274.818 13.84 274.797 13.8933 274.754 13.936C274.722 13.9787 274.669 14 274.594 14H274.29C273.874 14 273.485 13.888 273.122 13.664C272.77 13.4293 272.488 13.1147 272.274 12.72C272.125 13.1253 271.869 13.44 271.506 13.664C271.154 13.888 270.77 14 270.354 14H268.194C267.672 14 267.224 13.8133 266.85 13.44C266.477 13.056 266.29 12.6027 266.29 12.08V10.176H267.49V11.744C267.49 11.904 267.538 12.0427 267.634 12.16C267.741 12.2667 267.874 12.32 268.034 12.32H270.37C270.701 12.32 270.978 12.208 271.202 11.984C271.437 11.7493 271.554 11.4773 271.554 11.168C271.554 11.04 271.544 10.944 271.522 10.88L270.274 6.416L271.65 5.952L273.17 11.36C273.256 11.6587 273.384 11.8933 273.554 12.064C273.725 12.2347 273.938 12.32 274.194 12.32H274.594ZM274.594 14C274.53 14 274.476 13.984 274.434 13.952C274.391 13.9093 274.37 13.8507 274.37 13.776V12.56C274.37 12.496 274.396 12.4427 274.45 12.4C274.492 12.3467 274.54 12.32 274.594 12.32H275.794C276.38 12.32 276.738 12.032 276.866 11.456L277.426 8.72L278.818 8.992L278.37 11.248C278.359 11.2907 278.354 11.36 278.354 11.456C278.354 11.712 278.439 11.92 278.61 12.08C278.78 12.24 279.004 12.32 279.282 12.32H280.37C280.434 12.32 280.487 12.3467 280.53 12.4C280.572 12.4427 280.594 12.496 280.594 12.56V13.776C280.594 13.84 280.572 13.8933 280.53 13.936C280.487 13.9787 280.434 14 280.37 14H279.266C278.882 14 278.535 13.9147 278.226 13.744C277.927 13.5733 277.703 13.328 277.554 13.008C277.383 13.3173 277.127 13.5627 276.786 13.744C276.444 13.9147 276.087 14 275.714 14H274.594ZM277.906 15.92H279.49V17.52H277.906V15.92ZM275.474 15.92H277.058V17.52H275.474V15.92ZM280.375 14C280.311 14 280.258 13.9787 280.215 13.936C280.172 13.8933 280.151 13.84 280.151 13.776V12.56C280.151 12.496 280.172 12.4427 280.215 12.4C280.258 12.3467 280.311 12.32 280.375 12.32H282.151C282.428 12.32 282.658 12.2293 282.839 12.048C283.02 11.856 283.111 11.6213 283.111 11.344V8.224H284.551V11.328C284.551 11.808 284.428 12.256 284.183 12.672C283.948 13.0773 283.628 13.4027 283.223 13.648C282.818 13.8827 282.375 14 281.895 14H280.375ZM282.951 5.072H284.535V6.656H282.951V5.072ZM293.486 12.32C293.55 12.32 293.603 12.3413 293.646 12.384C293.688 12.4267 293.71 12.48 293.71 12.544V13.776C293.71 13.9253 293.635 14 293.486 14H292.03V12.32H293.486ZM290.83 13.856C290.606 13.952 290.211 14 289.646 14H288.686C288.259 14 287.87 13.8933 287.518 13.68C287.176 13.4667 286.904 13.184 286.702 12.832C286.499 12.48 286.398 12.096 286.398 11.68C286.398 11.4987 286.408 11.36 286.43 11.264L286.686 9.84C286.782 9.296 287.043 8.848 287.47 8.496C287.907 8.13333 288.403 7.952 288.958 7.952H289.854C290.291 7.952 290.696 8.064 291.07 8.288C291.443 8.50133 291.736 8.79467 291.95 9.168C292.163 9.53067 292.27 9.92533 292.27 10.352V13.808C292.27 14.6293 292.04 15.3547 291.582 15.984C291.134 16.624 290.531 17.0773 289.774 17.344L287.742 18.016L287.326 16.672L289.406 15.984C289.864 15.824 290.216 15.568 290.462 15.216C290.707 14.8747 290.83 14.5067 290.83 14.112V13.856ZM290.846 10.352C290.846 10.128 290.766 9.94133 290.606 9.792C290.456 9.632 290.264 9.552 290.03 9.552H288.798C288.606 9.552 288.446 9.60533 288.318 9.712C288.2 9.81867 288.12 9.97867 288.078 10.192L287.838 11.488C287.827 11.52 287.822 11.568 287.822 11.632C287.822 11.824 287.886 11.9893 288.014 12.128C288.152 12.256 288.323 12.32 288.526 12.32H290.846V10.352ZM293.484 14C293.42 14 293.367 13.984 293.324 13.952C293.282 13.9093 293.26 13.8507 293.26 13.776V12.56C293.26 12.496 293.287 12.4427 293.34 12.4C293.383 12.3467 293.431 12.32 293.484 12.32H294.684C295.271 12.32 295.628 12.032 295.756 11.456L296.316 8.72L297.708 8.992L297.26 11.248C297.25 11.2907 297.244 11.36 297.244 11.456C297.244 11.712 297.33 11.92 297.5 12.08C297.671 12.24 297.895 12.32 298.172 12.32H299.26C299.324 12.32 299.378 12.3467 299.42 12.4C299.463 12.4427 299.484 12.496 299.484 12.56V13.776C299.484 13.84 299.463 13.8933 299.42 13.936C299.378 13.9787 299.324 14 299.26 14H298.156C297.772 14 297.426 13.9147 297.116 13.744C296.818 13.5733 296.594 13.328 296.444 13.008C296.274 13.3173 296.018 13.5627 295.676 13.744C295.335 13.9147 294.978 14 294.604 14H293.484ZM296.876 5.456H298.46V7.056H296.876V5.456ZM294.444 5.456H296.028V7.056H294.444V5.456ZM299.266 14C299.202 14 299.148 13.984 299.106 13.952C299.063 13.9093 299.042 13.8507 299.042 13.776V12.56C299.042 12.496 299.068 12.4427 299.122 12.4C299.164 12.3467 299.212 12.32 299.266 12.32H300.466C301.052 12.32 301.41 12.032 301.538 11.456L302.098 8.72L303.49 8.992L303.042 11.248C303.031 11.2907 303.026 11.36 303.026 11.456C303.026 11.712 303.111 11.92 303.282 12.08C303.452 12.24 303.676 12.32 303.954 12.32H305.042C305.106 12.32 305.159 12.3467 305.202 12.4C305.244 12.4427 305.266 12.496 305.266 12.56V13.776C305.266 13.84 305.244 13.8933 305.202 13.936C305.159 13.9787 305.106 14 305.042 14H303.938C303.554 14 303.207 13.9147 302.898 13.744C302.599 13.5733 302.375 13.328 302.226 13.008C302.055 13.3173 301.799 13.5627 301.458 13.744C301.116 13.9147 300.759 14 300.386 14H299.266ZM302.578 15.92H304.162V17.52H302.578V15.92ZM300.146 15.92H301.73V17.52H300.146V15.92ZM305.047 14C304.983 14 304.93 13.9787 304.887 13.936C304.844 13.8933 304.823 13.84 304.823 13.776V12.544C304.823 12.48 304.844 12.4267 304.887 12.384C304.919 12.3413 304.972 12.32 305.047 12.32H305.559C305.826 12.32 306.055 12.2453 306.247 12.096C306.439 11.9467 306.562 11.7333 306.615 11.456L306.935 9.808C307.042 9.27467 307.308 8.832 307.735 8.48C308.162 8.128 308.647 7.952 309.191 7.952H310.087C310.524 7.952 310.93 8.05867 311.303 8.272C311.676 8.48533 311.97 8.77867 312.183 9.152C312.407 9.52533 312.519 9.93067 312.519 10.368V12.32C312.519 12.8 312.359 13.2 312.039 13.52C311.719 13.84 311.308 14 310.807 14H308.919C308.172 14 307.612 13.6693 307.239 13.008C306.855 13.6693 306.263 14 305.463 14H305.047ZM311.079 12.32V10.352C311.079 10.128 310.999 9.936 310.839 9.776C310.69 9.616 310.498 9.536 310.263 9.536H309.095C308.903 9.536 308.732 9.6 308.583 9.728C308.434 9.856 308.343 10.016 308.311 10.208L308.055 11.488C308.044 11.52 308.039 11.5627 308.039 11.616C308.039 11.808 308.108 11.9733 308.247 12.112C308.386 12.2507 308.546 12.32 308.727 12.32H311.079ZM319.024 14C318.544 14 318.101 13.8827 317.696 13.648C317.29 13.4133 316.97 13.0987 316.736 12.704C316.501 12.2987 316.384 11.856 316.384 11.376V3.248H317.824V11.344C317.824 11.6213 317.914 11.856 318.096 12.048C318.277 12.2293 318.501 12.32 318.768 12.32H319.568C319.632 12.32 319.685 12.3467 319.728 12.4C319.77 12.4427 319.792 12.496 319.792 12.56V13.776C319.792 13.9253 319.717 14 319.568 14H319.024ZM319.562 14C319.498 14 319.445 13.9787 319.402 13.936C319.36 13.8933 319.338 13.84 319.338 13.776V12.56C319.338 12.496 319.36 12.4427 319.402 12.4C319.445 12.3467 319.498 12.32 319.562 12.32H321.851C322.117 12.32 322.347 12.224 322.539 12.032C322.731 11.84 322.827 11.6107 322.827 11.344V8.224H324.251V11.344C324.251 11.824 324.133 12.2667 323.899 12.672C323.664 13.0773 323.344 13.4027 322.939 13.648C322.533 13.8827 322.091 14 321.611 14H319.562ZM322.379 15.92H323.963V17.52H322.379V15.92ZM319.947 15.92H321.531V17.52H319.947V15.92Z" fill="#AAAAAA"/>
<path d="M341.125 10H589.25" stroke="url(#paint0_linear_1_9489)" stroke-width="2" stroke-linecap="round"/>
<path d="M249.125 10L1.00001 9.99998" stroke="url(#paint1_linear_1_9489)" stroke-width="2" stroke-linecap="round"/>
<defs>
<linearGradient id="paint0_linear_1_9489" x1="341.125" y1="10.5" x2="589.25" y2="10.5" gradientUnits="userSpaceOnUse">
<stop offset="0.06" stop-color="#AAAAAA" stop-opacity="0.94"/>
<stop offset="1" stop-color="#AAAAAA" stop-opacity="0"/>
</linearGradient>
<linearGradient id="paint1_linear_1_9489" x1="249.125" y1="9.5" x2="1" y2="9.49998" gradientUnits="userSpaceOnUse">
<stop offset="0.06" stop-color="#AAAAAA" stop-opacity="0.94"/>
<stop offset="1" stop-color="#AAAAAA" stop-opacity="0"/>
</linearGradient>
</defs>
</svg>
