<svg width="756" height="140" viewBox="0 0 756 140" fill="none" xmlns="http://www.w3.org/2000/svg">
<path d="M12.48 96.9564H7.94182V75.7927H0.48V71.4291H20.1164V75.7927H12.48V96.9564ZM39.5131 97.0436H35.0622V86.6582C35.0622 85.4364 34.7567 84.5055 34.1458 83.8655C33.564 83.1964 32.7058 82.8618 31.5713 82.8618H26.7276V97.0436H22.2767V70.6H26.7276V78.5855H32.0076C34.3058 78.5855 36.124 79.2691 37.4622 80.6364C38.8294 82.0036 39.5131 83.8364 39.5131 86.1345V97.0436ZM50.6172 97.48C49.1917 97.48 47.8826 97.2618 46.6899 96.8255C45.4972 96.36 44.479 95.72 43.6353 94.9055C42.8208 94.0618 42.1808 93.0582 41.7153 91.8945C41.2499 90.7018 41.0172 89.3927 41.0172 87.9673C41.0172 86.5709 41.2353 85.2909 41.6717 84.1273C42.1372 82.9636 42.7772 81.9745 43.5917 81.16C44.4063 80.3164 45.3808 79.6618 46.5153 79.1964C47.6499 78.7309 48.9008 78.4982 50.2681 78.4982C51.5772 78.4982 52.7553 78.7018 53.8026 79.1091C54.8499 79.5164 55.7517 80.0982 56.5081 80.8545C57.2644 81.5818 57.8463 82.4836 58.2535 83.56C58.6608 84.6073 58.879 85.7709 58.9081 87.0509C58.9081 87.4582 58.8935 87.7927 58.8644 88.0545C58.8644 88.3164 58.8353 88.6945 58.7772 89.1891L58.6462 89.9309H45.8172C46.4863 92.1418 48.1153 93.2473 50.7044 93.2473C51.6353 93.2473 52.5372 93.1745 53.4099 93.0291C54.3117 92.8836 55.3153 92.6655 56.4208 92.3745L57.2935 92.1127L58.1226 96.0836L57.1626 96.3455C56.0572 96.6655 54.9953 96.9273 53.9772 97.1309C52.9881 97.3636 51.8681 97.48 50.6172 97.48ZM45.7299 86.0036H54.5881C54.3844 84.8982 53.9044 84.04 53.1481 83.4291C52.4208 82.8182 51.4753 82.5127 50.3117 82.5127C49.0899 82.5127 48.0863 82.8182 47.3008 83.4291C46.5153 84.04 45.9917 84.8982 45.7299 86.0036ZM101.48 97.5682C99.6619 97.5682 97.7301 97.5303 95.6847 97.4545C93.6392 97.4545 91.6316 97.4167 89.6619 97.3409C87.6922 97.3409 85.8362 97.303 84.0938 97.2273C82.3513 97.1515 80.8362 97.0758 79.5483 97L77.3892 96.8864V29.8409H100.685C105.76 29.8409 110.42 30.6364 114.662 32.2273C118.904 33.7424 122.541 35.9394 125.571 38.8182C128.677 41.697 131.101 45.2197 132.844 49.3864C134.586 53.553 135.457 58.2121 135.457 63.3636C135.457 68.5152 134.624 73.2121 132.957 77.4545C131.291 81.6212 128.942 85.2197 125.912 88.25C122.957 91.2045 119.397 93.5152 115.23 95.1818C111.063 96.7727 106.48 97.5682 101.48 97.5682ZM89.2074 86.0909C91.2528 86.1667 93.2983 86.2045 95.3438 86.2045C97.465 86.2045 99.5104 86.2045 101.48 86.2045C104.813 86.2045 107.806 85.6742 110.457 84.6136C113.185 83.4773 115.495 81.9242 117.389 79.9545C119.283 77.9848 120.723 75.5985 121.707 72.7955C122.768 69.9924 123.298 66.8485 123.298 63.3636C123.298 56.4697 121.291 51.053 117.276 47.1136C113.26 43.1742 107.73 41.2045 100.685 41.2045H89.2074V86.0909ZM189.831 97.1136H141.99V30.6364H189.831V42H153.694V58.25H186.081V69.6136H153.694V85.8636H189.831V97.1136ZM242.7 97.1136H196.904V30.6364H208.609V85.9773H242.7V97.1136Z" fill="white"/>
<path d="M381.5 96.8864H369.682V41.7727H350.25V30.4091H401.386V41.7727H381.5V96.8864ZM472.467 97H459.399L452.694 82.1136H422.126L415.535 97H402.353L432.58 30.0682H442.24L472.467 97ZM427.126 70.9773H447.58L437.353 47.6818L427.126 70.9773ZM513.232 97.0873H507.559L501.406 88.5782C501.174 88.5782 500.955 88.5927 500.752 88.6218C500.548 88.6218 500.33 88.6218 500.097 88.6218H496.475V97.0873H491.937V71.2982H500.664C502.032 71.2982 503.326 71.4727 504.548 71.8218C505.77 72.1418 506.832 72.6509 507.734 73.3491C508.664 74.0182 509.406 74.8909 509.959 75.9673C510.512 77.0436 510.788 78.3236 510.788 79.8073C510.788 81.4945 510.381 83.0073 509.566 84.3455C508.752 85.6836 507.559 86.7018 505.988 87.4L513.232 97.0873ZM496.475 84.3455H500.883C502.541 84.3455 503.85 83.9382 504.81 83.1236C505.799 82.3091 506.294 81.2036 506.294 79.8073C506.294 78.9927 506.134 78.3236 505.814 77.8C505.523 77.2473 505.115 76.8109 504.592 76.4909C504.068 76.1709 503.472 75.9527 502.803 75.8364C502.134 75.6909 501.45 75.6182 500.752 75.6182H496.475V84.3455ZM523.04 97.48C521.615 97.48 520.305 97.2618 519.113 96.8255C517.92 96.36 516.902 95.72 516.058 94.9055C515.244 94.0618 514.604 93.0582 514.138 91.8945C513.673 90.7018 513.44 89.3927 513.44 87.9673C513.44 86.5709 513.658 85.2909 514.095 84.1273C514.56 82.9636 515.2 81.9745 516.015 81.16C516.829 80.3164 517.804 79.6618 518.938 79.1964C520.073 78.7309 521.324 78.4982 522.691 78.4982C524 78.4982 525.178 78.7018 526.225 79.1091C527.273 79.5164 528.175 80.0982 528.931 80.8545C529.687 81.5818 530.269 82.4836 530.676 83.56C531.084 84.6073 531.302 85.7709 531.331 87.0509C531.331 87.4582 531.316 87.7927 531.287 88.0545C531.287 88.3164 531.258 88.6945 531.2 89.1891L531.069 89.9309H518.24C518.909 92.1418 520.538 93.2473 523.127 93.2473C524.058 93.2473 524.96 93.1745 525.833 93.0291C526.735 92.8836 527.738 92.6655 528.844 92.3745L529.716 92.1127L530.545 96.0836L529.585 96.3455C528.48 96.6655 527.418 96.9273 526.4 97.1309C525.411 97.3636 524.291 97.48 523.04 97.48ZM518.153 86.0036H527.011C526.807 84.8982 526.327 84.04 525.571 83.4291C524.844 82.8182 523.898 82.5127 522.735 82.5127C521.513 82.5127 520.509 82.8182 519.724 83.4291C518.938 84.04 518.415 84.8982 518.153 86.0036ZM540.874 97.48C539.477 97.48 538.226 97.2473 537.121 96.7818C536.015 96.2873 535.07 95.6182 534.285 94.7745C533.528 93.9018 532.946 92.8836 532.539 91.72C532.132 90.5564 531.928 89.3055 531.928 87.9673C531.928 86.6 532.132 85.3345 532.539 84.1709C532.975 83.0073 533.586 82.0182 534.372 81.2036C535.157 80.36 536.103 79.7055 537.208 79.24C538.343 78.7745 539.608 78.5418 541.005 78.5418H550.168V97H545.761V96.3455C544.248 97.1018 542.619 97.48 540.874 97.48ZM541.31 82.6436C539.739 82.6436 538.517 83.1091 537.645 84.04C536.801 84.9709 536.379 86.2945 536.379 88.0109C536.379 89.6691 536.801 90.9782 537.645 91.9382C538.517 92.8982 539.681 93.3782 541.135 93.3782C541.921 93.3782 542.677 93.2618 543.405 93.0291C544.132 92.7964 544.917 92.4327 545.761 91.9382V82.6436H541.31ZM557.279 97H552.871V70.5564H557.279V97ZM585.83 97.0436H567.459V71.5164H585.83V75.88H571.954V82.12H584.39V86.4836H571.954V92.7236H585.83V97.0436ZM595.354 97.5673C594.248 97.5673 593.027 97.4073 591.688 97.0873C590.35 96.7964 589.056 96.3745 587.805 95.8218L587.063 95.5164L588.241 91.5018L589.157 91.9382C590.234 92.4327 591.339 92.8255 592.474 93.1164C593.608 93.3782 594.612 93.5091 595.485 93.5091C595.63 93.5091 595.877 93.4945 596.227 93.4655C596.576 93.4364 596.925 93.3782 597.274 93.2909C597.623 93.1745 597.928 93 598.19 92.7673C598.481 92.5345 598.627 92.2145 598.627 91.8073C598.627 91.3127 598.321 90.9491 597.71 90.7164C597.099 90.4836 596.067 90.2073 594.612 89.8873C593.827 89.7127 593.027 89.5236 592.212 89.32C591.427 89.0873 590.714 88.7818 590.074 88.4036C589.434 87.9964 588.91 87.4727 588.503 86.8327C588.125 86.1927 587.936 85.3782 587.936 84.3891C587.936 83.3418 588.139 82.4545 588.547 81.7273C588.983 81 589.55 80.4036 590.248 79.9382C590.947 79.4727 591.732 79.1382 592.605 78.9345C593.477 78.7309 594.365 78.6291 595.267 78.6291C595.965 78.6291 596.648 78.6727 597.317 78.76C597.987 78.8473 598.612 78.9636 599.194 79.1091C599.805 79.2255 600.343 79.3564 600.808 79.5018C601.274 79.6473 601.637 79.7636 601.899 79.8509L602.728 80.1564L601.419 83.9091L600.634 83.6473C599.587 83.3273 598.568 83.08 597.579 82.9055C596.619 82.7309 595.79 82.6436 595.092 82.6436C593.259 82.6436 592.343 83.1818 592.343 84.2582C592.343 84.6364 592.576 84.9273 593.041 85.1309C593.536 85.3345 594.437 85.5964 595.747 85.9164C596.677 86.1491 597.565 86.3818 598.408 86.6145C599.252 86.8473 600.008 87.1673 600.677 87.5745C602.161 88.4764 602.903 89.8145 602.903 91.5891C602.903 93.4509 602.234 94.92 600.896 95.9964C599.557 97.0436 597.71 97.5673 595.354 97.5673ZM613.821 97.48C609.544 97.48 607.406 95.1236 607.406 90.4109V82.7309H603.784V78.4982H607.406V72.3891H611.813V78.4982H617.486V82.7309H611.813V90.1927C611.813 91.1236 611.944 91.8655 612.206 92.4182C612.497 92.9709 613.166 93.2473 614.213 93.2473C615.144 93.2473 616.075 93.1455 617.006 92.9418L617.879 92.8109L618.577 96.7818L617.792 96.9564C617.035 97.16 616.366 97.2909 615.784 97.3491C615.203 97.4364 614.548 97.48 613.821 97.48ZM628.202 97.48C626.805 97.48 625.554 97.2473 624.449 96.7818C623.344 96.2873 622.398 95.6182 621.613 94.7745C620.856 93.9018 620.274 92.8836 619.867 91.72C619.46 90.5564 619.256 89.3055 619.256 87.9673C619.256 86.6 619.46 85.3345 619.867 84.1709C620.304 83.0073 620.914 82.0182 621.7 81.2036C622.485 80.36 623.431 79.7055 624.536 79.24C625.671 78.7745 626.936 78.5418 628.333 78.5418H637.496V97H633.089V96.3455C631.576 97.1018 629.947 97.48 628.202 97.48ZM628.638 82.6436C627.067 82.6436 625.845 83.1091 624.973 84.04C624.129 84.9709 623.707 86.2945 623.707 88.0109C623.707 89.6691 624.129 90.9782 624.973 91.9382C625.845 92.8982 627.009 93.3782 628.464 93.3782C629.249 93.3782 630.005 93.2618 630.733 93.0291C631.46 92.7964 632.245 92.4327 633.089 91.9382V82.6436H628.638ZM648.883 97.48C644.607 97.48 642.469 95.1236 642.469 90.4109V82.7309H638.847V78.4982H642.469V72.3891H646.876V78.4982H652.549V82.7309H646.876V90.1927C646.876 91.1236 647.007 91.8655 647.269 92.4182C647.56 92.9709 648.229 93.2473 649.276 93.2473C650.207 93.2473 651.138 93.1455 652.069 92.9418L652.941 92.8109L653.64 96.7818L652.854 96.9564C652.098 97.16 651.429 97.2909 650.847 97.3491C650.265 97.4364 649.61 97.48 648.883 97.48ZM664.181 97.48C662.755 97.48 661.446 97.2618 660.253 96.8255C659.061 96.36 658.042 95.72 657.199 94.9055C656.384 94.0618 655.744 93.0582 655.279 91.8945C654.813 90.7018 654.581 89.3927 654.581 87.9673C654.581 86.5709 654.799 85.2909 655.235 84.1273C655.701 82.9636 656.341 81.9745 657.155 81.16C657.97 80.3164 658.944 79.6618 660.079 79.1964C661.213 78.7309 662.464 78.4982 663.832 78.4982C665.141 78.4982 666.319 78.7018 667.366 79.1091C668.413 79.5164 669.315 80.0982 670.072 80.8545C670.828 81.5818 671.41 82.4836 671.817 83.56C672.224 84.6073 672.442 85.7709 672.472 87.0509C672.472 87.4582 672.457 87.7927 672.428 88.0545C672.428 88.3164 672.399 88.6945 672.341 89.1891L672.21 89.9309H659.381C660.05 92.1418 661.679 93.2473 664.268 93.2473C665.199 93.2473 666.101 93.1745 666.973 93.0291C667.875 92.8836 668.879 92.6655 669.984 92.3745L670.857 92.1127L671.686 96.0836L670.726 96.3455C669.621 96.6655 668.559 96.9273 667.541 97.1309C666.552 97.3636 665.432 97.48 664.181 97.48ZM659.293 86.0036H668.152C667.948 84.8982 667.468 84.04 666.712 83.4291C665.984 82.8182 665.039 82.5127 663.875 82.5127C662.653 82.5127 661.65 82.8182 660.864 83.4291C660.079 84.04 659.555 84.8982 659.293 86.0036ZM700.996 97H696.545V86.6145C696.545 85.7709 696.458 85.1018 696.283 84.6073C696.109 84.1127 695.862 83.7345 695.542 83.4727C695.251 83.2109 694.916 83.0364 694.538 82.9491C694.16 82.8618 693.767 82.8182 693.36 82.8182C691.818 82.8182 690.436 83.0073 689.214 83.3855C689.302 83.7345 689.36 84.1127 689.389 84.52C689.418 84.9273 689.432 85.3782 689.432 85.8727V97H685.025V86.44C685.025 85.0727 684.778 84.1273 684.283 83.6036C683.818 83.08 682.931 82.8182 681.622 82.8182H677.869V97H673.462V78.5418H682.102C683.149 78.5418 684.051 78.6436 684.807 78.8473C685.592 79.0218 686.276 79.3127 686.858 79.72C687.905 79.3418 689.011 79.0509 690.174 78.8473C691.367 78.6436 692.574 78.5418 693.796 78.5418C696.24 78.5418 698.043 79.2109 699.207 80.5491C700.4 81.8873 700.996 83.7345 700.996 86.0909V97ZM712.228 97.48C710.802 97.48 709.493 97.2618 708.3 96.8255C707.108 96.36 706.089 95.72 705.246 94.9055C704.431 94.0618 703.791 93.0582 703.326 91.8945C702.86 90.7018 702.628 89.3927 702.628 87.9673C702.628 86.5709 702.846 85.2909 703.282 84.1273C703.748 82.9636 704.388 81.9745 705.202 81.16C706.017 80.3164 706.991 79.6618 708.126 79.1964C709.26 78.7309 710.511 78.4982 711.878 78.4982C713.188 78.4982 714.366 78.7018 715.413 79.1091C716.46 79.5164 717.362 80.0982 718.118 80.8545C718.875 81.5818 719.457 82.4836 719.864 83.56C720.271 84.6073 720.489 85.7709 720.518 87.0509C720.518 87.4582 720.504 87.7927 720.475 88.0545C720.475 88.3164 720.446 88.6945 720.388 89.1891L720.257 89.9309H707.428C708.097 92.1418 709.726 93.2473 712.315 93.2473C713.246 93.2473 714.148 93.1745 715.02 93.0291C715.922 92.8836 716.926 92.6655 718.031 92.3745L718.904 92.1127L719.733 96.0836L718.773 96.3455C717.668 96.6655 716.606 96.9273 715.588 97.1309C714.598 97.3636 713.478 97.48 712.228 97.48ZM707.34 86.0036H716.198C715.995 84.8982 715.515 84.04 714.758 83.4291C714.031 82.8182 713.086 82.5127 711.922 82.5127C710.7 82.5127 709.697 82.8182 708.911 83.4291C708.126 84.04 707.602 84.8982 707.34 86.0036ZM738.832 96.9564H734.425V86.5709C734.425 85.3491 734.119 84.4182 733.508 83.7782C732.898 83.1091 732.025 82.7745 730.89 82.7745H726.047V96.9564H721.639V78.4982H731.327C733.654 78.4982 735.487 79.1818 736.825 80.5491C738.163 81.8873 738.832 83.72 738.832 86.0473V96.9564ZM750.133 97.48C745.857 97.48 743.719 95.1236 743.719 90.4109V82.7309H740.097V78.4982H743.719V72.3891H748.126V78.4982H753.799V82.7309H748.126V90.1927C748.126 91.1236 748.257 91.8655 748.519 92.4182C748.81 92.9709 749.479 93.2473 750.526 93.2473C751.457 93.2473 752.388 93.1455 753.319 92.9418L754.191 92.8109L754.89 96.7818L754.104 96.9564C753.348 97.16 752.679 97.2909 752.097 97.3491C751.515 97.4364 750.86 97.48 750.133 97.48Z" fill="white"/>
<rect x="242" y="86" width="129" height="11" fill="white"/>
</svg>
