<svg width="18" height="18" viewBox="0 0 18 18" fill="none" xmlns="http://www.w3.org/2000/svg">
<g clip-path="url(#clip0_6689_1575)">
<path d="M16.8075 7.94232L15.27 6.40482V4.22232C15.27 3.8245 15.112 3.44297 14.8307 3.16166C14.5494 2.88036 14.1678 2.72232 13.77 2.72232H11.595L10.0575 1.22232C9.77646 0.942945 9.39628 0.786133 9 0.786133C8.60372 0.786133 8.22354 0.942945 7.9425 1.22232L6.405 2.72982H4.2225C3.82468 2.72982 3.44315 2.88786 3.16184 3.16916C2.88054 3.45047 2.7225 3.832 2.7225 4.22982V6.40482L1.2225 7.94232C1.07758 8.07847 0.961179 8.24208 0.880062 8.42363C0.798946 8.60517 0.754735 8.80103 0.75 8.99982C0.749684 9.39593 0.90606 9.77608 1.185 10.0573L2.73 11.5948V13.7773C2.73 14.1751 2.88804 14.5567 3.16934 14.838C3.45064 15.1193 3.83218 15.2773 4.23 15.2773H6.405L7.9425 16.8148C8.22374 17.0938 8.60389 17.2501 9 17.2498C9.39611 17.2501 9.77626 17.0938 10.0575 16.8148L11.595 15.2698H13.7775C14.1753 15.2698 14.5569 15.1118 14.8382 14.8305C15.1195 14.5492 15.2775 14.1676 15.2775 13.7698V11.5948L16.815 10.0573C17.0944 9.77628 17.2512 9.3961 17.2512 8.99982C17.2512 8.60354 17.0944 8.22337 16.815 7.94232H16.8075ZM13.77 10.9798V13.7698H10.98L9 15.7498L7.02 13.7698H4.23V10.9798L2.25 8.99982L4.23 7.01982V4.22982H7.02L9 2.24982L10.98 4.22982H13.77V7.01982L15.75 8.99982L13.77 10.9798Z" fill="black"/>
<path d="M8.25027 9.54758L6.53277 7.83008L5.46777 8.88758L8.25027 11.6701L12.5328 7.38758L11.4678 6.33008L8.25027 9.54758Z" fill="black"/>
</g>
<defs>
<clipPath id="clip0_6689_1575">
<rect width="18" height="18" fill="white"/>
</clipPath>
</defs>
</svg>
