<svg width="16" height="16" viewBox="0 0 16 16" fill="none" xmlns="http://www.w3.org/2000/svg">
<g clip-path="url(#clip0_1_9929)">
<path d="M6.66667 15.3333C6.66667 15.702 6.36867 16 6 16H3.33333C1.49533 16 0 14.5047 0 12.6667V3.33333C0 1.49533 1.49533 0 3.33333 0H8.66667C10.5047 0 12 1.49533 12 3.33333V4.66667C12 5.03533 11.702 5.33333 11.3333 5.33333C10.9647 5.33333 10.6667 5.03533 10.6667 4.66667V3.33333C10.6667 2.23067 9.76933 1.33333 8.66667 1.33333H3.33333C2.23067 1.33333 1.33333 2.23067 1.33333 3.33333V12.6667C1.33333 13.7693 2.23067 14.6667 3.33333 14.6667H6C6.36867 14.6667 6.66667 14.9647 6.66667 15.3333ZM9.33333 4C9.33333 3.63133 9.03533 3.33333 8.66667 3.33333H3.33333C2.96467 3.33333 2.66667 3.63133 2.66667 4C2.66667 4.36867 2.96467 4.66667 3.33333 4.66667H8.66667C9.03533 4.66667 9.33333 4.36867 9.33333 4ZM6.66667 7.33333C6.66667 6.96467 6.36867 6.66667 6 6.66667H3.33333C2.96467 6.66667 2.66667 6.96467 2.66667 7.33333C2.66667 7.702 2.96467 8 3.33333 8H6C6.36867 8 6.66667 7.702 6.66667 7.33333ZM3.33333 10C2.96467 10 2.66667 10.298 2.66667 10.6667C2.66667 11.0353 2.96467 11.3333 3.33333 11.3333H4.66667C5.03533 11.3333 5.33333 11.0353 5.33333 10.6667C5.33333 10.298 5.03533 10 4.66667 10H3.33333ZM16 11.3333C16 13.906 13.906 16 11.3333 16C8.76067 16 6.66667 13.906 6.66667 11.3333C6.66667 8.76067 8.76067 6.66667 11.3333 6.66667C13.906 6.66667 16 8.76067 16 11.3333ZM14.6667 11.3333C14.6667 9.49533 13.1713 8 11.3333 8C9.49533 8 8 9.49533 8 11.3333C8 13.1713 9.49533 14.6667 11.3333 14.6667C13.1713 14.6667 14.6667 13.1713 14.6667 11.3333ZM12.5387 10.506L11.0567 11.9287C10.9607 12.0227 10.804 12.0247 10.7087 11.93L9.95467 11.1913C9.69067 10.9327 9.26933 10.9367 9.012 11.2007C8.754 11.464 8.758 11.8853 9.02133 12.1433L9.776 12.8827C10.0827 13.182 10.484 13.332 10.8847 13.332C11.2853 13.332 11.6853 13.182 11.9867 12.8847L13.462 11.4687C13.7273 11.2133 13.736 10.7913 13.4813 10.526C13.226 10.2593 12.8033 10.252 12.5387 10.5067V10.506Z" fill="#AAAAAA"/>
</g>
<defs>
<clipPath id="clip0_1_9929">
<rect width="16" height="16" fill="white"/>
</clipPath>
</defs>
</svg>
