<svg width="98" height="98" viewBox="0 0 98 98" fill="none" xmlns="http://www.w3.org/2000/svg">
<path d="M41.9279 14.291L8.92225 71.4576C8.20549 72.6991 7.82815 74.1075 7.82812 75.5409C7.82812 76.9744 8.20547 78.3827 8.92221 79.6243C9.63896 80.8658 10.6699 81.8966 11.9113 82.6135C13.1528 83.3303 14.5611 83.7076 15.9946 83.7076H82.0058C83.4393 83.7076 84.8476 83.3303 86.0889 82.6135C87.3305 81.8966 88.3613 80.8658 89.0781 79.6243C89.795 78.3827 90.1723 76.9744 90.1723 75.5409C90.1723 74.1075 89.795 72.6991 89.0781 71.4576L56.0725 14.291C55.3557 13.0496 54.3249 12.0187 53.0833 11.302C51.8418 10.5853 50.4337 10.208 49.0002 10.208C47.5668 10.208 46.1584 10.5853 44.9171 11.302C43.6755 12.0187 42.6447 13.0496 41.9279 14.291Z" fill="#FAC100"/>
<path d="M71.4585 75.5415C61.5168 75.5423 51.7746 72.7513 43.3417 67.4865C34.9086 62.2214 28.1234 54.694 23.7591 45.7617L8.92225 71.4581C8.20549 72.6995 7.82815 74.1078 7.82812 75.5413C7.82812 76.9749 8.20547 78.3831 8.92221 79.6246C9.63896 80.8661 10.6699 81.897 11.9113 82.6138C13.1528 83.3306 14.5611 83.7079 15.9946 83.7081H82.0058C83.3517 83.7073 84.6765 83.3739 85.8623 82.7375C87.0483 82.1011 88.0585 81.1818 88.8033 80.0607C89.5481 78.9396 90.0042 77.6519 90.1312 76.3122C90.2582 74.9723 90.0522 73.6219 89.5314 72.381C83.7369 74.478 77.6207 75.5474 71.4585 75.5415Z" fill="#FF9500"/>
<path d="M47.3955 28.583H50.605C51.0535 28.582 51.4976 28.6733 51.9092 28.8513C52.321 29.0293 52.6916 29.2902 52.998 29.6177C53.3047 29.9454 53.5403 30.3325 53.6906 30.7551C53.8408 31.1778 53.9025 31.6267 53.8717 32.0743L52.2669 56.1455C52.215 56.9761 51.848 57.7554 51.241 58.3246C50.6338 58.8936 49.8324 59.2097 49.0002 59.208C48.1683 59.2097 47.3667 58.8936 46.7597 58.3246C46.1527 57.7554 45.7856 56.9761 45.7336 56.1455L44.1288 32.0743C44.098 31.6267 44.1597 31.1778 44.3099 30.7551C44.4604 30.3325 44.696 29.9454 45.0024 29.6177C45.3089 29.2902 45.6797 29.0293 46.0913 28.8513C46.5031 28.6733 46.9469 28.582 47.3955 28.583Z" fill="#2D4A60"/>
<path d="M48.9997 75.5413C51.8186 75.5413 54.1038 73.2561 54.1038 70.4372C54.1038 67.6182 51.8186 65.333 48.9997 65.333C46.1807 65.333 43.8955 67.6182 43.8955 70.4372C43.8955 73.2561 46.1807 75.5413 48.9997 75.5413Z" fill="#2D4A60"/>
<path d="M48.9997 75.5418C49.995 75.5414 50.9685 75.2499 51.8002 74.7031C52.632 74.1566 53.2859 73.3787 53.6812 72.4651C50.4772 71.3238 47.3915 69.8742 44.4672 68.1367C44.0966 68.8476 43.9008 69.6363 43.8955 70.4377C43.8955 71.7915 44.4333 73.0898 45.3904 74.0469C46.3478 75.0043 47.646 75.5418 48.9997 75.5418Z" fill="#263F52"/>
<path d="M82.0058 85.7499H15.9946C14.202 85.7514 12.4406 85.2805 10.8876 84.3853C9.33466 83.4898 8.04486 82.2013 7.14795 80.6492C6.25105 79.0969 5.77867 77.3362 5.77832 75.5434C5.77797 73.7508 6.24968 71.9899 7.14597 70.4374L40.1598 13.2707C41.0557 11.719 42.3444 10.4304 43.8963 9.53452C45.4479 8.63864 47.2083 8.16699 49.0002 8.16699C50.792 8.16699 52.5523 8.63864 54.104 9.53452C55.6559 10.4304 56.9446 11.719 57.8407 13.2707L90.8544 70.4374C91.7503 71.9893 92.2219 73.7496 92.2219 75.5414C92.2219 77.3334 91.7503 79.0937 90.8544 80.6455C89.9585 82.1974 88.6698 83.4861 87.118 84.3822C85.5661 85.2781 83.8058 85.7499 82.0138 85.7499H82.0058ZM43.6919 15.3124L10.6903 72.4791C10.1526 73.4105 9.86953 74.4671 9.86972 75.5426C9.86988 76.618 10.1532 77.6745 10.6913 78.6057C11.2293 79.5369 12.0031 80.3101 12.9348 80.8475C13.8664 81.3846 14.9231 81.6672 15.9986 81.6666H82.0058C83.0812 81.6672 84.1379 81.3846 85.0695 80.8475C86.0014 80.3101 86.7749 79.5369 87.3131 78.6057C87.8511 77.6745 88.1345 76.618 88.1347 75.5426C88.1349 74.4671 87.8517 73.4105 87.3139 72.4791L54.3086 15.3124C53.7714 14.3794 52.998 13.6045 52.066 13.0656C51.1342 12.5268 50.0766 12.2431 49.0002 12.2431C47.9237 12.2431 46.8661 12.5268 45.9343 13.0656C45.0022 13.6045 44.2289 14.3794 43.6919 15.3124Z" fill="black"/>
<path d="M48.9996 61.2503C47.6511 61.2489 46.3534 60.736 45.3683 59.8153C44.383 58.8945 43.7838 57.6343 43.6913 56.2891L42.0845 32.2097C42.0351 31.4828 42.1359 30.7536 42.3807 30.0674C42.6255 29.3809 43.0087 28.7525 43.5069 28.2209C44.0051 27.6892 44.6074 27.2658 45.2762 26.9769C45.9451 26.6882 46.6662 26.5402 47.3949 26.542H50.6044C51.3328 26.5404 52.0537 26.6886 52.7224 26.9775C53.391 27.2666 53.9929 27.69 54.4909 28.2217C54.9888 28.7533 55.3721 29.3818 55.6166 30.0678C55.8612 30.754 55.9619 31.483 55.9127 32.2097L54.3079 56.2891C54.2154 57.6343 53.6162 58.8945 52.6309 59.8153C51.6458 60.736 50.3481 61.2489 48.9996 61.2503ZM47.3949 30.6253C47.2262 30.6249 47.0592 30.6592 46.9044 30.7264C46.7495 30.7936 46.6102 30.8918 46.4953 31.0153C46.3804 31.1388 46.2919 31.2846 46.236 31.4438C46.1801 31.6029 46.1574 31.7719 46.1699 31.9402L47.7746 56.0175C47.7746 56.3424 47.9036 56.6541 48.1333 56.8838C48.3632 57.1135 48.6748 57.2425 48.9996 57.2425C49.3244 57.2425 49.636 57.1135 49.8659 56.8838C50.0956 56.6541 50.2246 56.3424 50.2246 56.0175L51.8314 31.9402C51.8438 31.7719 51.8212 31.6029 51.7652 31.4438C51.7093 31.2846 51.6209 31.1388 51.506 31.0153C51.391 30.8918 51.2518 30.7936 51.0968 30.7264C50.942 30.6592 50.775 30.6249 50.6064 30.6253H47.3949Z" fill="black"/>
<path d="M49.0003 77.5836C47.5871 77.5836 46.2055 77.1645 45.0303 76.3793C43.8551 75.5942 42.9392 74.4781 42.3984 73.1724C41.8575 71.8668 41.7161 70.4298 41.9919 69.0438C42.2675 67.6577 42.948 66.3843 43.9474 65.3849C44.9468 64.3855 46.2202 63.705 47.6063 63.4294C48.9923 63.1536 50.4293 63.295 51.7349 63.8359C53.0406 64.3767 54.1567 65.2926 54.9418 66.4678C55.727 67.643 56.1461 69.0246 56.1461 70.4378C56.1461 72.3331 55.3934 74.1506 54.0532 75.4907C52.7131 76.8309 50.8956 77.5836 49.0003 77.5836ZM49.0003 67.3753C48.3945 67.3753 47.8025 67.555 47.2988 67.8914C46.7953 68.2279 46.4027 68.7063 46.171 69.2659C45.9392 69.8255 45.8784 70.4413 45.9966 71.0352C46.1148 71.6293 46.4066 72.1751 46.8347 72.6034C47.2631 73.0315 47.8088 73.3233 48.4029 73.4415C48.9968 73.5597 49.6126 73.4991 50.1722 73.2671C50.7318 73.0354 51.2102 72.6428 51.5467 72.1393C51.8831 71.6357 52.0628 71.0436 52.0628 70.4378C52.0628 69.6256 51.7402 68.8465 51.1659 68.2722C50.5916 67.6979 49.8125 67.3753 49.0003 67.3753Z" fill="black"/>
</svg>
