<svg width="16" height="16" viewBox="0 0 16 16" fill="none" xmlns="http://www.w3.org/2000/svg">
<g clip-path="url(#clip0_67_1060)">
<path d="M14.3333 8H8.22933L6.386 5.76133C5.81533 5.06733 4.972 4.66933 4.07333 4.668H3.66667C3.044 4.668 2.45867 4.91 2.018 5.35C1.57667 5.79067 1.33333 6.37733 1.33333 7.00133V8.034C0.573333 8.18867 0 8.862 0 9.66667V13C0 14.654 1.346 16 3 16H13C14.654 16 16 14.654 16 13V9.66667C16 8.748 15.252 8 14.3333 8ZM6 8.66667V15.3333H4V8.66667H6ZM6.66667 8.66667H9.33333V15.3333H6.66667V8.66667ZM10 8.66667H12V15.3333H10V8.66667ZM2.48867 5.82133C2.80333 5.50667 3.22133 5.334 3.666 5.334H4.072C4.77067 5.33533 5.42667 5.64533 5.87067 6.18467L7.36533 8H2V7.00067C2 6.55533 2.17333 6.13667 2.48867 5.82133ZM0.666667 13V9.66667C0.666667 9.11533 1.11533 8.66667 1.66667 8.66667H3.33333V15.3333H3C1.71333 15.3333 0.666667 14.2867 0.666667 13ZM15.3333 13C15.3333 14.2867 14.2867 15.3333 13 15.3333H12.6667V8.66667H14.3333C14.8847 8.66667 15.3333 9.11533 15.3333 9.66667V13ZM3.66667 3.33333C4.58533 3.33333 5.33333 2.58533 5.33333 1.66667C5.33333 0.748 4.58533 0 3.66667 0C2.748 0 2 0.748 2 1.66667C2 2.58533 2.748 3.33333 3.66667 3.33333ZM3.66667 0.666667C4.218 0.666667 4.66667 1.11533 4.66667 1.66667C4.66667 2.218 4.218 2.66667 3.66667 2.66667C3.11533 2.66667 2.66667 2.218 2.66667 1.66667C2.66667 1.11533 3.11533 0.666667 3.66667 0.666667ZM14.0973 2.626C13.6047 2.13333 13.3333 1.478 13.3333 0.780667V0.333333C13.3333 0.149333 13.4827 0 13.6667 0C13.8507 0 14 0.149333 14 0.333333V0.781333C14 1.30067 14.202 1.788 14.5693 2.15533C15.0553 2.64133 15.3333 3.31333 15.3333 4.00067V4.334C15.3333 4.518 15.184 4.66733 15 4.66733C14.816 4.66733 14.6667 4.518 14.6667 4.334V4.00067C14.6667 3.48933 14.4593 2.98867 14.0973 2.62667V2.626ZM11.4307 3.08733C10.938 2.59467 10.6667 1.93933 10.6667 1.242V0.333333C10.6667 0.149333 10.816 0 11 0C11.184 0 11.3333 0.149333 11.3333 0.333333V1.24267C11.3333 1.762 11.5353 2.24933 11.9027 2.61667C12.3887 3.10267 12.6667 3.77467 12.6667 4.462V5.00067C12.6667 5.18467 12.5173 5.334 12.3333 5.334C12.1493 5.334 12 5.18467 12 5.00067V4.462C12 3.95067 11.7927 3.44933 11.4307 3.08733Z" fill="#AAAAAA"/>
</g>
<defs>
<clipPath id="clip0_67_1060">
<rect width="16" height="16" fill="white"/>
</clipPath>
</defs>
</svg>
