<svg width="16" height="16" viewBox="0 0 16 16" fill="none" xmlns="http://www.w3.org/2000/svg">
<path d="M14 3.99967H7.33333C6.87403 3.99975 6.42876 4.15791 6.07232 4.44758C5.71588 4.73724 5.47 5.14076 5.376 5.59034C5.05361 5.42351 4.69632 5.33533 4.33333 5.33301C3.71449 5.33301 3.121 5.57884 2.68342 6.01643C2.24583 6.45401 2 7.0475 2 7.66634C2.00195 8.01301 2.08193 8.3548 2.234 8.66634H1.33333V1.33301H0V14.6663H1.33333V12.6663H14.6667V14.6663H16V5.99967C16 5.46924 15.7893 4.96053 15.4142 4.58546C15.0391 4.21039 14.5304 3.99967 14 3.99967ZM6.66667 5.99967C6.66667 5.82286 6.73691 5.65329 6.86193 5.52827C6.98695 5.40325 7.15652 5.33301 7.33333 5.33301H14C14.1768 5.33301 14.3464 5.40325 14.4714 5.52827C14.5964 5.65329 14.6667 5.82286 14.6667 5.99967V8.66634H6.66667V5.99967ZM3.33333 7.66634C3.33333 7.46856 3.39198 7.27522 3.50186 7.11077C3.61175 6.94632 3.76792 6.81815 3.95065 6.74246C4.13338 6.66677 4.33444 6.64697 4.52842 6.68556C4.7224 6.72414 4.90059 6.81938 5.04044 6.95923C5.18029 7.09909 5.27553 7.27727 5.31412 7.47125C5.3527 7.66523 5.3329 7.8663 5.25721 8.04902C5.18153 8.23175 5.05335 8.38793 4.8889 8.49781C4.72445 8.60769 4.53111 8.66634 4.33333 8.66634C4.06812 8.66634 3.81376 8.56098 3.62623 8.37345C3.43869 8.18591 3.33333 7.93156 3.33333 7.66634ZM1.33333 11.333V9.99967H14.6667V11.333H1.33333Z" fill="#AAAAAA"/>
</svg>
