<svg width="16" height="16" viewBox="0 0 16 16" fill="none" xmlns="http://www.w3.org/2000/svg">
<path d="M13.8267 6.87434L10.96 2.76034C10.6528 2.31953 10.2435 1.95952 9.76712 1.71099C9.29073 1.46247 8.76132 1.33279 8.224 1.33301H5.66667C4.99068 1.3353 4.33121 1.54208 3.77494 1.92617C3.21868 2.31026 2.79165 2.85369 2.55 3.48501L1.16867 7.12768C0.808758 7.37206 0.514104 7.70078 0.310401 8.08518C0.106699 8.46957 0.000133587 8.89797 0 9.33301L0 10.333C0.000547233 10.7171 0.133449 11.0892 0.376314 11.3867C0.61918 11.6842 0.957166 11.8889 1.33333 11.9663V12.333C1.33333 12.9518 1.57917 13.5453 2.01675 13.9829C2.45434 14.4205 3.04783 14.6663 3.66667 14.6663C4.28551 14.6663 4.879 14.4205 5.31658 13.9829C5.75417 13.5453 6 12.9518 6 12.333V11.9997H10V12.333C10 12.9518 10.2458 13.5453 10.6834 13.9829C11.121 14.4205 11.7145 14.6663 12.3333 14.6663C12.9522 14.6663 13.5457 14.4205 13.9832 13.9829C14.4208 13.5453 14.6667 12.9518 14.6667 12.333V11.9663C15.0428 11.8889 15.3808 11.6842 15.6237 11.3867C15.8666 11.0892 15.9995 10.7171 16 10.333V9.99967C15.999 9.31941 15.7904 8.65566 15.402 8.09716C15.0137 7.53867 14.464 7.11205 13.8267 6.87434ZM9.86667 3.52234L12.056 6.66634H7.33333V2.66634H8.224C8.54654 2.66599 8.86437 2.74366 9.1504 2.89271C9.43644 3.04176 9.68218 3.25778 9.86667 3.52234ZM3.8 3.95767C3.94473 3.57937 4.20042 3.25363 4.53353 3.02319C4.86664 2.79275 5.26162 2.66836 5.66667 2.66634H6V6.66634H2.76933L3.8 3.95767ZM4.66667 12.333C4.66667 12.5982 4.56131 12.8526 4.37377 13.0401C4.18624 13.2277 3.93188 13.333 3.66667 13.333C3.40145 13.333 3.1471 13.2277 2.95956 13.0401C2.77202 12.8526 2.66667 12.5982 2.66667 12.333V11.9997H4.66667V12.333ZM12.3333 13.333C12.0681 13.333 11.8138 13.2277 11.6262 13.0401C11.4387 12.8526 11.3333 12.5982 11.3333 12.333V11.9997H13.3333V12.333C13.3333 12.5982 13.228 12.8526 13.0404 13.0401C12.8529 13.2277 12.5985 13.333 12.3333 13.333ZM14.6667 10.333C14.6667 10.4214 14.6315 10.5062 14.569 10.5687C14.5065 10.6312 14.4217 10.6663 14.3333 10.6663H1.66667C1.57826 10.6663 1.49348 10.6312 1.43096 10.5687C1.36845 10.5062 1.33333 10.4214 1.33333 10.333V9.33301C1.33333 8.97939 1.47381 8.64025 1.72386 8.3902C1.97391 8.14015 2.31304 7.99967 2.66667 7.99967H12.6667C13.1971 7.99967 13.7058 8.21039 14.0809 8.58546C14.456 8.96053 14.6667 9.46924 14.6667 9.99967V10.333Z" fill="#AAAAAA"/>
</svg>
