<svg width="26" height="26" viewBox="0 0 26 26" fill="none" xmlns="http://www.w3.org/2000/svg">
<g clip-path="url(#clip0_6689_1552)">
<path d="M12.9995 0.52002C6.11837 0.52002 0.519531 6.11886 0.519531 13C0.519531 19.8812 6.11837 25.48 12.9995 25.48C19.8807 25.48 25.4795 19.8812 25.4795 13C25.4795 6.11886 19.8807 0.52002 12.9995 0.52002ZM12.9995 24.44C6.69141 24.44 1.55953 19.3081 1.55953 13C1.55953 6.6919 6.69141 1.56002 12.9995 1.56002C19.3076 1.56002 24.4395 6.6919 24.4395 13C24.4395 19.3081 19.3076 24.44 12.9995 24.44Z" fill="#8C8C8C"/>
<path d="M11.9593 6.76016H14.0393C15.473 6.76016 16.6393 7.92652 16.6393 9.36016H17.6793C17.6793 7.35296 16.046 5.72016 14.0393 5.72016H13.5193V4.16016H12.4793V5.72016H11.9593C9.95266 5.72016 8.31934 7.35296 8.31934 9.36016V9.88016C8.31934 11.8874 9.95266 13.5202 11.9593 13.5202H14.0393C15.473 13.5202 16.6393 14.6865 16.6393 16.1202V16.6402C16.6393 18.0738 15.473 19.2402 14.0393 19.2402H11.9593C10.5257 19.2402 9.35934 18.0738 9.35934 16.6402H8.31934C8.31934 18.6474 9.95266 20.2802 11.9593 20.2802H12.4793V21.8402H13.5193V20.2802H14.0393C16.046 20.2802 17.6793 18.6474 17.6793 16.6402V16.1202C17.6793 14.113 16.046 12.4802 14.0393 12.4802H11.9593C10.5257 12.4802 9.35934 11.3138 9.35934 9.88016V9.36016C9.35934 7.92652 10.5257 6.76016 11.9593 6.76016Z" fill="#8C8C8C"/>
</g>
<defs>
<clipPath id="clip0_6689_1552">
<rect width="26" height="26" fill="white"/>
</clipPath>
</defs>
</svg>
