<svg width="16" height="16" viewBox="0 0 16 16" fill="none" xmlns="http://www.w3.org/2000/svg">
<g clip-path="url(#clip0_1_10260)">
<path d="M8 0C3.58867 0 0 3.58867 0 8C0 12.4113 3.58867 16 8 16C12.4113 16 16 12.4113 16 8C16 3.58867 12.4113 0 8 0ZM8 14.6667C4.324 14.6667 1.33333 11.676 1.33333 8C1.33333 4.324 4.324 1.33333 8 1.33333C11.676 1.33333 14.6667 4.324 14.6667 8C14.6667 11.676 11.676 14.6667 8 14.6667ZM8.91933 4.25267L4.97667 8.19533C4.34733 8.82467 4 9.662 4 10.552V11.3333C4 11.702 4.298 12 4.66667 12H5.448C6.338 12 7.17533 11.6527 7.80467 11.0233L11.7473 7.08067C12.5273 6.30067 12.5273 5.03267 11.7473 4.25267C10.9673 3.47267 9.69933 3.47267 8.91933 4.25267ZM6.862 10.0807C6.48933 10.4533 5.974 10.6667 5.448 10.6667H5.33333V10.552C5.33333 10.026 5.54667 9.51067 5.91933 9.138L8.224 6.83333L9.16667 7.776L6.862 10.0807ZM10.8047 6.138L10.1093 6.83333L9.16667 5.89067L9.862 5.19533C10.1227 4.93467 10.544 4.93467 10.8047 5.19533C11.0653 5.456 11.0647 5.878 10.8047 6.138Z" fill="#8CFF45"/>
</g>
<defs>
<clipPath id="clip0_1_10260">
<rect width="16" height="16" fill="white"/>
</clipPath>
</defs>
</svg>
