<svg width="24" height="24" viewBox="0 0 24 24" fill="none" xmlns="http://www.w3.org/2000/svg">
<g clip-path="url(#clip0_67_1094)">
<path d="M12 0C8.81846 0.00344108 5.76821 1.26883 3.51852 3.51852C1.26883 5.76821 0.00344108 8.81846 0 12C0.6 27.9 23.4 27.893 24 12C23.9966 8.81846 22.7312 5.76821 20.4815 3.51852C18.2318 1.26883 15.1815 0.00344108 12 0ZM12 22C9.34873 21.9971 6.80688 20.9426 4.93215 19.0679C3.05742 17.1931 2.00291 14.6513 2 12C2.5 -1.248 21.5 -1.244 22 12C21.9971 14.6513 20.9426 17.1931 19.0679 19.0679C17.1931 20.9426 14.6513 21.9971 12 22ZM17.842 15.542C17.2544 16.5779 16.4061 17.442 15.3813 18.0486C14.3565 18.6552 13.1908 18.9832 12 19C10.8084 18.9834 9.64182 18.6555 8.61601 18.0489C7.59019 17.4423 6.74078 16.5781 6.152 15.542C6.04568 15.376 5.99077 15.1824 5.99417 14.9853C5.99757 14.7883 6.05912 14.5966 6.17109 14.4344C6.28306 14.2722 6.44046 14.1467 6.62352 14.0737C6.80658 14.0007 7.00714 13.9834 7.2 14.024C8.73768 14.6033 10.3582 14.9328 12 15C13.6391 14.932 15.2568 14.6025 16.792 14.024C16.985 13.9829 17.1859 13.9998 17.3693 14.0726C17.5527 14.1454 17.7105 14.2709 17.8227 14.4332C17.935 14.5955 17.9967 14.7874 18.0001 14.9847C18.0036 15.182 17.9485 15.3759 17.842 15.542ZM19 8.65C19 9.95 17.308 11.468 16.465 12.144C16.3331 12.2498 16.1691 12.3075 16 12.3075C15.8309 12.3075 15.6669 12.2498 15.535 12.144C9.835 7.865 15.594 5.035 16 8.65C16 8.25218 16.158 7.87064 16.4393 7.58934C16.7206 7.30804 17.1022 7.15 17.5 7.15C17.8978 7.15 18.2794 7.30804 18.5607 7.58934C18.842 7.87064 19 8.25218 19 8.65ZM5 8.65C5 8.25218 5.15804 7.87064 5.43934 7.58934C5.72064 7.30804 6.10218 7.15 6.5 7.15C6.89782 7.15 7.27936 7.30804 7.56066 7.58934C7.84196 7.87064 8 8.25218 8 8.65C8.41 5.033 14.167 7.87 8.465 12.144C8.33312 12.2498 8.16909 12.3075 8 12.3075C7.83091 12.3075 7.66688 12.2498 7.535 12.144C6.692 11.468 5 9.948 5 8.65Z" fill="#363636"/>
</g>
<defs>
<clipPath id="clip0_67_1094">
<rect width="24" height="24" fill="white"/>
</clipPath>
</defs>
</svg>
