<svg width="20" height="20" viewBox="0 0 20 20" fill="none" xmlns="http://www.w3.org/2000/svg">
<path d="M2.48438 7.08301C2.48438 6.38602 2.48438 6.03753 2.54202 5.74774C2.77874 4.55767 3.70903 3.62737 4.8991 3.39065C5.1889 3.33301 5.53739 3.33301 6.23438 3.33301H13.6387C14.3356 3.33301 14.6841 3.33301 14.9739 3.39065C16.164 3.62737 17.0943 4.55767 17.331 5.74774C17.3887 6.03753 17.3887 6.38602 17.3887 7.08301V7.712C17.3887 8.05497 17.1106 8.33301 16.7676 8.33301H16.5713C15.6508 8.33301 14.9046 9.0792 14.9046 9.99967C14.9046 10.9201 15.6508 11.6663 16.5713 11.6663H16.7676C17.1106 11.6663 17.3887 11.9444 17.3887 12.2874V12.9163C17.3887 13.6133 17.3887 13.9618 17.331 14.2516C17.0943 15.4417 16.164 16.372 14.9739 16.6087C14.6841 16.6663 14.3356 16.6663 13.6387 16.6663H6.23437C5.53739 16.6663 5.1889 16.6663 4.8991 16.6087C3.70903 16.372 2.77874 15.4417 2.54202 14.2516C2.48438 13.9618 2.48438 13.6133 2.48438 12.9163V12.2874C2.48438 11.9444 2.76241 11.6663 3.10539 11.6663H3.30176C4.22223 11.6663 4.96842 10.9201 4.96842 9.99967C4.96842 9.0792 4.22223 8.33301 3.30176 8.33301H3.10539C2.76241 8.33301 2.48438 8.05497 2.48438 7.712V7.08301Z" stroke="#777777" stroke-width="2"/>
<path d="M9.5693 8.9068C9.70851 8.54432 9.77812 8.36308 9.8912 8.33796C9.92094 8.33136 9.95167 8.33136 9.98141 8.33796C10.0945 8.36308 10.1641 8.54432 10.3033 8.9068C10.3825 9.11293 10.4221 9.216 10.4961 9.2861C10.5169 9.30577 10.5395 9.32328 10.5635 9.33839C10.6491 9.39228 10.7559 9.40228 10.9697 9.42227C11.3315 9.45612 11.5124 9.47304 11.5677 9.58077C11.5791 9.60308 11.5869 9.62724 11.5907 9.65224C11.609 9.77295 11.476 9.89932 11.21 10.1521L11.1361 10.2223C11.0118 10.3404 10.9496 10.3995 10.9136 10.4732C10.8921 10.5175 10.8776 10.5651 10.8708 10.6142C10.8595 10.6961 10.8777 10.7818 10.9141 10.9533L10.9272 11.0145C10.9925 11.3219 11.0251 11.4756 10.9844 11.5512C10.9477 11.6191 10.8803 11.6625 10.8058 11.6662C10.7229 11.6704 10.606 11.5709 10.3723 11.372C10.2183 11.2409 10.1413 11.1754 10.0558 11.1498C9.97772 11.1264 9.89489 11.1264 9.81678 11.1498C9.73131 11.1754 9.65432 11.2409 9.50033 11.372C9.26661 11.5709 9.14974 11.6704 9.06681 11.6662C8.99231 11.6625 8.92487 11.6191 8.88826 11.5512C8.84749 11.4756 8.88015 11.3219 8.94545 11.0145L8.95846 10.9533C8.99488 10.7818 9.01309 10.6961 9.00179 10.6142C8.99501 10.5651 8.98054 10.5175 8.95897 10.4732C8.92301 10.3995 8.86083 10.3404 8.73647 10.2223L8.66261 10.1521C8.39662 9.89932 8.26362 9.77295 8.28194 9.65224C8.28573 9.62724 8.29351 9.60308 8.30495 9.58077C8.3602 9.47304 8.54111 9.45612 8.90293 9.42227C9.11666 9.40228 9.22353 9.39228 9.30914 9.33839C9.33315 9.32328 9.3557 9.30577 9.37648 9.2861C9.45054 9.216 9.49013 9.11293 9.5693 8.9068Z" fill="#777777" stroke="#777777"/>
</svg>
