<svg width="16" height="16" viewBox="0 0 16 16" fill="none" xmlns="http://www.w3.org/2000/svg">
<path d="M10.6667 0H5.33333C3.49533 0 2 1.49533 2 3.33333V12.6667C2 14.5047 3.49533 16 5.33333 16H6.66667C7.03467 16 7.33333 15.7013 7.33333 15.3333V12H8.66667V15.3333C8.66667 15.7013 8.96533 16 9.33333 16H10.6667C12.5047 16 14 14.5047 14 12.6667V3.33333C14 1.49533 12.5047 0 10.6667 0ZM12.6667 12.6667C12.6667 13.7693 11.7693 14.6667 10.6667 14.6667H10V12H10.6667C11.0347 12 11.3333 11.7013 11.3333 11.3333C11.3333 10.9653 11.0347 10.6667 10.6667 10.6667H5.33333C4.96533 10.6667 4.66667 10.9653 4.66667 11.3333C4.66667 11.7013 4.96533 12 5.33333 12H6V14.6667H5.33333C4.23067 14.6667 3.33333 13.7693 3.33333 12.6667V3.33333C3.33333 2.23067 4.23067 1.33333 5.33333 1.33333H10.6667C11.7693 1.33333 12.6667 2.23067 12.6667 3.33333V12.6667ZM7.33333 8.66667C7.33333 9.03467 7.03467 9.33333 6.66667 9.33333H6C5.632 9.33333 5.33333 9.03467 5.33333 8.66667C5.33333 8.29867 5.632 8 6 8H6.66667C7.03467 8 7.33333 8.29867 7.33333 8.66667ZM10.6667 8.66667C10.6667 9.03467 10.368 9.33333 10 9.33333H9.33333C8.96533 9.33333 8.66667 9.03467 8.66667 8.66667C8.66667 8.29867 8.96533 8 9.33333 8H10C10.368 8 10.6667 8.29867 10.6667 8.66667ZM7.33333 3.33333C7.33333 3.70133 7.03467 4 6.66667 4H6C5.632 4 5.33333 3.70133 5.33333 3.33333C5.33333 2.96533 5.632 2.66667 6 2.66667H6.66667C7.03467 2.66667 7.33333 2.96533 7.33333 3.33333ZM10.6667 3.33333C10.6667 3.70133 10.368 4 10 4H9.33333C8.96533 4 8.66667 3.70133 8.66667 3.33333C8.66667 2.96533 8.96533 2.66667 9.33333 2.66667H10C10.368 2.66667 10.6667 2.96533 10.6667 3.33333ZM7.33333 6C7.33333 6.368 7.03467 6.66667 6.66667 6.66667H6C5.632 6.66667 5.33333 6.368 5.33333 6C5.33333 5.632 5.632 5.33333 6 5.33333H6.66667C7.03467 5.33333 7.33333 5.632 7.33333 6ZM10.6667 6C10.6667 6.368 10.368 6.66667 10 6.66667H9.33333C8.96533 6.66667 8.66667 6.368 8.66667 6C8.66667 5.632 8.96533 5.33333 9.33333 5.33333H10C10.368 5.33333 10.6667 5.632 10.6667 6Z" fill="#363636"/>
</svg>
