<svg width="24" height="24" viewBox="0 0 24 24" fill="none" xmlns="http://www.w3.org/2000/svg">
<g clip-path="url(#clip0_67_1092)">
<path d="M22 5.73462V1.99962C22 1.44662 21.553 0.999617 21 0.999617C20.447 0.999617 20 1.44662 20 1.99962V4.36662L14.797 0.854617C13.098 -0.291383 10.902 -0.291383 9.203 0.854617L2.204 5.57862C0.824 6.50962 0 8.05762 0 9.72362V18.9996C0 21.7566 2.243 23.9996 5 23.9996H19C21.757 23.9996 24 21.7566 24 18.9996V9.72362C24 8.14462 23.252 6.67662 22 5.73462ZM22 18.9996C22 20.6536 20.654 21.9996 19 21.9996H5C3.346 21.9996 2 20.6536 2 18.9996V9.72362C2 8.72462 2.494 7.79562 3.322 7.23762L10.322 2.51362C10.832 2.16862 11.416 1.99662 12 1.99662C12.584 1.99662 13.168 2.16862 13.678 2.51362L20.679 7.23762C21.506 7.79562 22 8.72462 22 9.72362V18.9996ZM14.212 8.92262C13.306 8.92262 12.528 9.20662 11.962 9.69762C11.395 9.20662 10.618 8.92262 9.712 8.92262C7.92 8.92262 6.462 10.4826 6.462 12.3986C6.462 14.6036 8.733 16.8896 10.639 18.4196C11.022 18.7276 11.492 18.8806 11.962 18.8806C12.432 18.8806 12.902 18.7276 13.286 18.4186C15.191 16.8896 17.463 14.6036 17.463 12.3976C17.463 10.4816 16.005 8.92162 14.213 8.92162L14.212 8.92262ZM12.034 16.8596C11.993 16.8926 11.931 16.8916 11.89 16.8596C9.775 15.1616 8.462 13.4516 8.462 12.3976C8.462 11.5846 9.023 10.9216 9.712 10.9216C10.282 10.9216 10.962 11.1086 10.962 11.9986C10.962 12.5516 11.41 12.9986 11.962 12.9986C12.514 12.9986 12.962 12.5516 12.962 11.9986C12.962 11.1076 13.642 10.9216 14.212 10.9216C14.901 10.9216 15.462 11.5836 15.462 12.3976C15.462 13.4516 14.149 15.1616 12.034 16.8586V16.8596Z" fill="#363636"/>
</g>
<defs>
<clipPath id="clip0_67_1092">
<rect width="24" height="24" fill="white"/>
</clipPath>
</defs>
</svg>
