<svg width="23" height="23" viewBox="0 0 23 23" fill="none" xmlns="http://www.w3.org/2000/svg">
<g clip-path="url(#clip0_6689_1512)">
<path d="M18.2083 14.375H17.25C16.72 14.375 16.2917 13.9466 16.2917 13.4167C16.2917 12.8867 16.72 12.4583 17.25 12.4583H18.2083C18.7383 12.4583 19.1667 12.8867 19.1667 13.4167C19.1667 13.9466 18.7383 14.375 18.2083 14.375ZM19.1667 17.25C19.1667 16.72 18.7383 16.2917 18.2083 16.2917H17.25C16.72 16.2917 16.2917 16.72 16.2917 17.25C16.2917 17.78 16.72 18.2083 17.25 18.2083H18.2083C18.7383 18.2083 19.1667 17.78 19.1667 17.25ZM15.3333 5.75C15.3333 5.22004 14.905 4.79167 14.375 4.79167H13.4167C12.8867 4.79167 12.4583 5.22004 12.4583 5.75C12.4583 6.27996 12.8867 6.70833 13.4167 6.70833H14.375C14.905 6.70833 15.3333 6.27996 15.3333 5.75ZM19.1667 5.75C19.1667 5.22004 18.7383 4.79167 18.2083 4.79167H17.25C16.72 4.79167 16.2917 5.22004 16.2917 5.75C16.2917 6.27996 16.72 6.70833 17.25 6.70833H18.2083C18.7383 6.70833 19.1667 6.27996 19.1667 5.75ZM19.1667 9.58333C19.1667 9.05338 18.7383 8.625 18.2083 8.625H17.25C16.72 8.625 16.2917 9.05338 16.2917 9.58333C16.2917 10.1133 16.72 10.5417 17.25 10.5417H18.2083C18.7383 10.5417 19.1667 10.1133 19.1667 9.58333ZM23 18.2083V4.79167C23 2.14954 20.8505 0 18.2083 0H13.4167C10.7745 0 8.625 2.14954 8.625 4.79167C8.625 5.32162 9.05338 5.75 9.58333 5.75C10.1133 5.75 10.5417 5.32162 10.5417 4.79167C10.5417 3.20658 11.8316 1.91667 13.4167 1.91667H18.2083C19.7934 1.91667 21.0833 3.20658 21.0833 4.79167V18.2083C21.0833 19.7934 19.7934 21.0833 18.2083 21.0833H17.25C16.72 21.0833 16.2917 21.5117 16.2917 22.0417C16.2917 22.5716 16.72 23 17.25 23H18.2083C20.8505 23 23 20.8505 23 18.2083ZM15.3333 18.6875V14.7085C15.3333 13.225 14.6635 11.8507 13.4943 10.9346L10.6193 8.68346C8.88088 7.32454 6.45246 7.32358 4.71404 8.68346L1.83904 10.9336C0.669875 11.8488 0 13.224 0 14.7075V18.6865C0 21.0642 1.93488 22.999 4.3125 22.999H11.0208C13.3985 22.999 15.3333 21.0651 15.3333 18.6875ZM9.43862 10.1938L12.3136 12.444C13.0142 12.9931 13.4167 13.8192 13.4167 14.7085V18.6875C13.4167 20.009 12.3424 21.0833 11.0208 21.0833H4.3125C2.99096 21.0833 1.91667 20.009 1.91667 18.6875V14.7085C1.91667 13.8182 2.31917 12.9931 3.01971 12.444L5.89471 10.1947C6.41604 9.7865 7.04087 9.58237 7.66667 9.58237C8.29246 9.58237 8.91729 9.7865 9.43862 10.1938ZM9.58333 17.25V15.3333C9.58333 14.8043 9.154 14.375 8.625 14.375H6.70833C6.17933 14.375 5.75 14.8043 5.75 15.3333V17.25C5.75 17.779 6.17933 18.2083 6.70833 18.2083H8.625C9.154 18.2083 9.58333 17.779 9.58333 17.25Z" fill="#8C8C8C"/>
</g>
<defs>
<clipPath id="clip0_6689_1512">
<rect width="23" height="23" fill="white"/>
</clipPath>
</defs>
</svg>
