<svg width="18" height="18" viewBox="0 0 18 18" fill="none" xmlns="http://www.w3.org/2000/svg">
<path d="M12.8571 9.53958V12.7084H11.0202V9.75129C11.0202 9.00901 10.7545 8.50243 10.0894 8.50243C9.58193 8.50243 9.27936 8.84358 9.1465 9.17444C9.0985 9.29272 9.08564 9.45729 9.08564 9.62186V12.7084H7.24793C7.24793 12.7084 7.27279 7.70101 7.24793 7.18244H9.08564V7.96501L9.07364 7.98301H9.08564V7.96586C9.32993 7.58872 9.76536 7.05215 10.7416 7.05215C11.9502 7.05215 12.8571 7.84243 12.8571 9.53958ZM5.32536 4.51758C4.69707 4.51758 4.28564 4.93072 4.28564 5.47244C4.28564 6.00386 4.68507 6.42815 5.30136 6.42815H5.31336C5.9545 6.42815 6.35307 6.00301 6.35307 5.47244C6.34107 4.93072 5.9545 4.51758 5.32536 4.51758ZM4.3945 12.7084H6.23222V7.18244H4.3945V12.7084Z" fill="#363636"/>
<path d="M3.42857 1.71429C2.97391 1.71429 2.53788 1.8949 2.21639 2.21639C1.8949 2.53788 1.71429 2.97391 1.71429 3.42857V13.7143C1.71429 14.1689 1.8949 14.605 2.21639 14.9265C2.53788 15.248 2.97391 15.4286 3.42857 15.4286H13.7143C14.1689 15.4286 14.605 15.248 14.9265 14.9265C15.248 14.605 15.4286 14.1689 15.4286 13.7143V3.42857C15.4286 2.97391 15.248 2.53788 14.9265 2.21639C14.605 1.8949 14.1689 1.71429 13.7143 1.71429H3.42857ZM3.42857 0H13.7143C14.6236 0 15.4957 0.361223 16.1387 1.00421C16.7816 1.64719 17.1429 2.51926 17.1429 3.42857V13.7143C17.1429 14.6236 16.7816 15.4957 16.1387 16.1387C15.4957 16.7816 14.6236 17.1429 13.7143 17.1429H3.42857C2.51926 17.1429 1.64719 16.7816 1.00421 16.1387C0.361223 15.4957 0 14.6236 0 13.7143V3.42857C0 2.51926 0.361223 1.64719 1.00421 1.00421C1.64719 0.361223 2.51926 0 3.42857 0V0Z" fill="#363636"/>
</svg>
