<svg width="18" height="18" viewBox="0 0 18 18" fill="none" xmlns="http://www.w3.org/2000/svg">
<path d="M8.56928 4.17346C6.1355 4.17346 4.17131 6.13764 4.17131 8.57143C4.17131 11.0052 6.1355 12.9694 8.56928 12.9694C11.0031 12.9694 12.9673 11.0052 12.9673 8.57143C12.9673 6.13764 11.0031 4.17346 8.56928 4.17346ZM8.56928 11.4298C6.99536 11.4298 5.71092 10.1453 5.71092 8.57143C5.71092 6.99751 6.99536 5.71307 8.56928 5.71307C10.1432 5.71307 11.4276 6.99751 11.4276 8.57143C11.4276 10.1453 10.1432 11.4298 8.56928 11.4298ZM13.1474 2.96836C12.5791 2.96836 12.1203 3.42724 12.1203 3.99548C12.1203 4.56372 12.5791 5.0226 13.1474 5.0226C13.7156 5.0226 14.1745 4.56587 14.1745 3.99548C14.1747 3.86055 14.1482 3.72691 14.0967 3.60222C14.0451 3.47752 13.9695 3.36423 13.874 3.26882C13.7786 3.17341 13.6653 3.09776 13.5406 3.0462C13.4159 2.99464 13.2823 2.96819 13.1474 2.96836ZM17.1422 8.57143C17.1422 7.38777 17.1529 6.21484 17.0865 5.03332C17.02 3.66097 16.7069 2.443 15.7034 1.43947C14.6977 0.433787 13.4819 0.122863 12.1095 0.0563897C10.9259 -0.0100837 9.75294 0.000637811 8.57143 0.000637811C7.38777 0.000637811 6.21484 -0.0100837 5.03332 0.0563897C3.66097 0.122863 2.443 0.435932 1.43947 1.43947C0.433788 2.44515 0.122863 3.66097 0.0563897 5.03332C-0.0100837 6.21698 0.000637811 7.38992 0.000637811 8.57143C0.000637811 9.75294 -0.0100837 10.928 0.0563897 12.1095C0.122863 13.4819 0.435932 14.6999 1.43947 15.7034C2.44515 16.7091 3.66097 17.02 5.03332 17.0865C6.21698 17.1529 7.38992 17.1422 8.57143 17.1422C9.75508 17.1422 10.928 17.1529 12.1095 17.0865C13.4819 17.02 14.6999 16.7069 15.7034 15.7034C16.7091 14.6977 17.02 13.4819 17.0865 12.1095C17.1551 10.928 17.1422 9.75509 17.1422 8.57143ZM15.2552 13.6277C15.0987 14.018 14.91 14.3096 14.6076 14.6098C14.3053 14.9121 14.0158 15.1008 13.6256 15.2574C12.4977 15.7055 9.81941 15.6048 8.56928 15.6048C7.31915 15.6048 4.63877 15.7055 3.51087 15.2595C3.1206 15.103 2.82898 14.9143 2.52877 14.6119C2.22643 14.3096 2.03773 14.0201 1.88119 13.6298C1.43518 12.4998 1.53596 9.82156 1.53596 8.57143C1.53596 7.3213 1.43518 4.64092 1.88119 3.51301C2.03773 3.12275 2.22643 2.83112 2.52877 2.53092C2.83112 2.23072 3.1206 2.03987 3.51087 1.88334C4.63877 1.43732 7.31915 1.53811 8.56928 1.53811C9.81941 1.53811 12.4998 1.43732 13.6277 1.88334C14.018 2.03987 14.3096 2.22857 14.6098 2.53092C14.9121 2.83327 15.1008 3.12275 15.2574 3.51301C15.7034 4.64092 15.6026 7.3213 15.6026 8.57143C15.6026 9.82156 15.7034 12.4998 15.2552 13.6277Z" fill="white"/>
</svg>
