<svg width="28" height="28" viewBox="0 0 28 28" fill="none" xmlns="http://www.w3.org/2000/svg">
<path d="M26.25 4.8125H11.8475V1.75C11.8475 1.63397 11.8014 1.52269 11.7194 1.44064C11.6373 1.35859 11.526 1.3125 11.41 1.3125H7.25375C7.13772 1.3125 7.02644 1.35859 6.94439 1.44064C6.86234 1.52269 6.81625 1.63397 6.81625 1.75V4.8125H6.16V3.33812C6.16 3.22209 6.11391 3.11081 6.03186 3.02877C5.94981 2.94672 5.83853 2.90062 5.7225 2.90062H3.0275C2.91147 2.90062 2.80019 2.94672 2.71814 3.02877C2.63609 3.11081 2.59 3.22209 2.59 3.33812V4.8125H1.75C1.63397 4.8125 1.52269 4.85859 1.44064 4.94064C1.35859 5.02269 1.3125 5.13397 1.3125 5.25V8.12875C1.3125 8.24478 1.35859 8.35606 1.44064 8.43811C1.52269 8.52016 1.63397 8.56625 1.75 8.56625H6.81625V25.8125H1.75C1.63397 25.8125 1.52269 25.8586 1.44064 25.9406C1.35859 26.0227 1.3125 26.134 1.3125 26.25C1.3125 26.366 1.35859 26.4773 1.44064 26.5594C1.52269 26.6414 1.63397 26.6875 1.75 26.6875H14C14.116 26.6875 14.2273 26.6414 14.3094 26.5594C14.3914 26.4773 14.4375 26.366 14.4375 26.25C14.4375 26.134 14.3914 26.0227 14.3094 25.9406C14.2273 25.8586 14.116 25.8125 14 25.8125H11.8475V8.56625H20.0287V14.63L15.7019 18.2875C15.6342 18.3454 15.5858 18.4226 15.5631 18.5087C15.5404 18.5948 15.5446 18.6858 15.575 18.7695C15.6055 18.8532 15.6607 18.9257 15.7334 18.9771C15.8061 19.0286 15.8928 19.0566 15.9819 19.0575H16.9662V23.5069C16.9662 23.6229 17.0123 23.7342 17.0944 23.8162C17.1764 23.8983 17.2877 23.9444 17.4037 23.9444H23.5287C23.6448 23.9444 23.7561 23.8983 23.8381 23.8162C23.9202 23.7342 23.9662 23.6229 23.9662 23.5069V19.0575H24.9375C25.0269 19.0575 25.1142 19.0301 25.1876 18.979C25.261 18.9279 25.317 18.8555 25.3479 18.7716C25.3789 18.6877 25.3835 18.5963 25.3609 18.5097C25.3384 18.4232 25.2898 18.3456 25.2219 18.2875L23.2969 16.66V15.2644C23.2969 15.1483 23.2508 15.0371 23.1687 14.955C23.0867 14.873 22.9754 14.8269 22.8594 14.8269C22.7433 14.8269 22.6321 14.873 22.55 14.955C22.468 15.0371 22.4219 15.1483 22.4219 15.2644V15.9206L20.8906 14.6081V8.56625H26.25C26.366 8.56625 26.4773 8.52016 26.5594 8.43811C26.6414 8.35606 26.6875 8.24478 26.6875 8.12875V5.25C26.6875 5.13397 26.6414 5.02269 26.5594 4.94064C26.4773 4.85859 26.366 4.8125 26.25 4.8125ZM23.0912 23.0694H17.8412V19.0575H23.0912V23.0694ZM20.4662 7.69125H19.8406L20.44 7.25375L21.0437 7.69125H20.4662ZM23.4675 5.6875H24.675L24.0625 6.125L23.4675 5.6875ZM23.345 6.68937L22.2556 7.51188L21.1663 6.68937L22.2556 5.86687L23.345 6.68937ZM20.44 6.125L19.8406 5.6875H21.0437L20.44 6.125ZM19.7138 6.67188L18.6244 7.49875L17.5306 6.67188L18.6244 5.84937L19.7138 6.67188ZM16.8044 6.125L16.1875 5.6875H17.395L16.8044 6.125ZM16.0781 6.67188L14.9887 7.49437L13.8994 6.67188L14.9887 5.84937L16.0781 6.67188ZM13.1775 6.125L12.5737 5.6875H13.7769L13.1775 6.125ZM12.4513 6.67188L11.8475 7.10938V6.23438L12.4513 6.67188ZM9.98375 3.52188L10.9725 2.64688V4.43625L9.98375 3.52188ZM10.0887 4.8125H8.57938L9.33187 4.13L10.0887 4.8125ZM9.33187 2.95312L8.4875 2.1875H10.1806L9.33187 2.95312ZM8.68 3.53938L7.69125 4.43625V2.64688L8.68 3.53938ZM7.69125 5.6875H10.9725V7.69125H7.69125V5.6875ZM10.9725 18.1125L10.01 17.2987L10.9725 16.485V18.1125ZM10.9725 14.77L10.01 13.9563L10.9725 13.125V14.77ZM10.6312 15.645L9.31875 16.7431L8.00625 15.645L9.31875 14.5469L10.6312 15.645ZM7.69125 16.52L8.65375 17.3337L7.69125 18.1475V16.52ZM7.69125 14.805V13.125L8.65375 13.9388L7.69125 14.805ZM7.69125 19.8713L8.65375 20.685L7.69125 21.4987V19.8713ZM8.02813 18.9963L9.34062 17.8938L10.6531 18.9963L9.34062 20.0987L8.02813 18.9963ZM10.9725 19.8713V21.4987L10.01 20.685L10.9725 19.8713ZM9.33187 13.3831L8.01937 12.2806L9.33187 11.1781L10.6444 12.2806L9.33187 13.3831ZM7.69125 11.4187V9.79125L8.65375 10.605L7.69125 11.4187ZM7.69125 23.1787L8.65375 23.9925L7.69125 24.8062V23.1787ZM8.0325 22.3037L9.345 21.2056L10.6575 22.3037L9.345 23.4019L8.0325 22.3037ZM10.9725 23.1787V24.8062L10.01 23.9925L10.9725 23.1787ZM10.9725 11.4187L10.01 10.605L10.9725 9.79125V11.4187ZM9.33187 10.0319L7.69125 8.64937V8.56625H10.9725V8.64937L9.33187 10.0319ZM9.33187 24.5656L10.8106 25.8125H7.875L9.33187 24.5656ZM13.1775 7.24062L13.7769 7.67812H12.5737L13.1775 7.24062ZM16.8044 7.24062L17.4081 7.67812H16.1875L16.8044 7.24062ZM24.0713 7.24062L24.675 7.67812H23.4675L24.0713 7.24062ZM24.7975 6.69375L25.8125 5.92375V7.4375L24.7975 6.69375ZM2.1875 5.6875H2.59V7.69125H2.1875V5.6875ZM6.16 7.69125V5.6875H6.81625V7.69125H6.16Z" fill="#8C8C8C"/>
<path d="M16.2619 25.8125H15.5312C15.4152 25.8125 15.3039 25.8586 15.2219 25.9406C15.1398 26.0227 15.0938 26.134 15.0938 26.25C15.0938 26.366 15.1398 26.4773 15.2219 26.5594C15.3039 26.6414 15.4152 26.6875 15.5312 26.6875H16.2619C16.3779 26.6875 16.4892 26.6414 16.5712 26.5594C16.6533 26.4773 16.6994 26.366 16.6994 26.25C16.6994 26.134 16.6533 26.0227 16.5712 25.9406C16.4892 25.8586 16.3779 25.8125 16.2619 25.8125Z" fill="#8C8C8C"/>
</svg>
