<svg width="16" height="16" viewBox="0 0 16 16" fill="none" xmlns="http://www.w3.org/2000/svg">
<g clip-path="url(#clip0_1_10183)">
<path d="M8.00031 10.6667C6.52964 10.6667 5.33364 9.47067 5.33364 8C5.33364 6.52933 6.52964 5.33333 8.00031 5.33333C9.47098 5.33333 10.667 6.52933 10.667 8C10.667 9.47067 9.47098 10.6667 8.00031 10.6667ZM8.00031 6.66667C7.26498 6.66667 6.66698 7.26467 6.66698 8C6.66698 8.73533 7.26498 9.33333 8.00031 9.33333C8.73564 9.33333 9.33364 8.73533 9.33364 8C9.33364 7.26467 8.73564 6.66667 8.00031 6.66667ZM3.33364 4.66667C2.96564 4.66667 2.66698 4.96533 2.66698 5.33333C2.66698 5.70133 2.96564 6 3.33364 6C3.70164 6 4.00031 5.70133 4.00031 5.33333C4.00031 4.96533 3.70164 4.66667 3.33364 4.66667ZM12.0003 6.66667C12.0003 7.03467 12.299 7.33333 12.667 7.33333C13.035 7.33333 13.3336 7.03467 13.3336 6.66667C13.3336 6.29867 13.035 6 12.667 6C12.299 6 12.0003 6.29867 12.0003 6.66667ZM3.33364 8.66667C2.96564 8.66667 2.66698 8.96533 2.66698 9.33333C2.66698 9.70133 2.96564 10 3.33364 10C3.70164 10 4.00031 9.70133 4.00031 9.33333C4.00031 8.96533 3.70164 8.66667 3.33364 8.66667ZM12.0003 10.6667C12.0003 11.0347 12.299 11.3333 12.667 11.3333C13.035 11.3333 13.3336 11.0347 13.3336 10.6667C13.3336 10.2987 13.035 10 12.667 10C12.299 10 12.0003 10.2987 12.0003 10.6667ZM11.333 14C10.2436 14 9.26764 13.734 8.32431 13.4767C7.42564 13.2313 6.57764 13 5.66698 13C4.61964 13 3.95898 13.0673 3.38764 13.2327C2.58364 13.464 1.73831 13.308 1.06764 12.8033C0.389643 12.2933 0.000976562 11.5147 0.000976562 10.6667V5.63467C0.000976562 4.25933 0.866977 3.00533 2.15631 2.514C3.05031 2.17267 3.89564 2 4.66831 2C5.75764 2 6.73298 2.266 7.67698 2.52333C8.57564 2.76867 9.42364 3 10.3343 3C11.381 3 12.0423 2.93267 12.6136 2.76733C13.419 2.536 14.2643 2.692 14.9343 3.19667C15.6123 3.70667 16.001 4.48533 16.001 5.33333V10.3653C16.001 11.7407 15.1343 12.9947 13.845 13.486C12.951 13.8273 12.1063 14 11.333 14ZM5.66698 11.6667C6.75631 11.6667 7.73164 11.9327 8.67564 12.19C9.57431 12.4353 10.4223 12.6667 11.333 12.6667C11.9423 12.6667 12.6276 12.5233 13.3703 12.24C14.159 11.94 14.6676 11.204 14.6676 10.3653V5.33333C14.6676 4.90867 14.4723 4.518 14.1323 4.26267C13.7996 4.01267 13.3816 3.934 12.9823 4.04867C12.2816 4.25067 11.5143 4.33333 10.333 4.33333C9.24364 4.33333 8.26831 4.06733 7.32431 3.81C6.42564 3.56467 5.57764 3.33333 4.66698 3.33333C4.05698 3.33333 3.37231 3.47667 2.62964 3.76C1.84098 4.06 1.33231 4.796 1.33231 5.63467V10.6667C1.33231 11.0913 1.52764 11.482 1.86764 11.7373C2.20031 11.9873 2.61831 12.066 3.01698 11.9507C3.71764 11.7487 4.48564 11.666 5.66631 11.666L5.66698 11.6667Z" fill="#AAAAAA"/>
</g>
<defs>
<clipPath id="clip0_1_10183">
<rect width="16" height="16" fill="white"/>
</clipPath>
</defs>
</svg>
