<svg width="20" height="20" viewBox="0 0 20 20" fill="none" xmlns="http://www.w3.org/2000/svg">
<path d="M10.8008 0.833688C10.8008 0.612674 10.8886 0.400712 11.0448 0.244432C11.2011 0.0881516 11.4131 0.000354244 11.6341 0.000354244C13.8435 0.00278057 15.9617 0.881533 17.524 2.44381C19.0863 4.00609 19.965 6.1243 19.9674 8.33369C19.9674 8.5547 19.8796 8.76666 19.7234 8.92294C19.5671 9.07922 19.3551 9.16702 19.1341 9.16702C18.9131 9.16702 18.7011 9.07922 18.5448 8.92294C18.3886 8.76666 18.3008 8.5547 18.3008 8.33369C18.2988 6.56619 17.5958 4.87165 16.346 3.62183C15.0961 2.37202 13.4016 1.66901 11.6341 1.66702C11.4131 1.66702 11.2011 1.57922 11.0448 1.42294C10.8886 1.26666 10.8008 1.0547 10.8008 0.833688ZM11.6341 5.00035C12.5182 5.00035 13.366 5.35154 13.9911 5.97667C14.6162 6.60179 14.9674 7.44963 14.9674 8.33369C14.9674 8.5547 15.0552 8.76666 15.2115 8.92294C15.3678 9.07922 15.5798 9.16702 15.8008 9.16702C16.0218 9.16702 16.2337 9.07922 16.39 8.92294C16.5463 8.76666 16.6341 8.5547 16.6341 8.33369C16.6328 7.00801 16.1056 5.73701 15.1682 4.79962C14.2308 3.86222 12.9598 3.33501 11.6341 3.33369C11.4131 3.33369 11.2011 3.42149 11.0448 3.57777C10.8886 3.73405 10.8008 3.94601 10.8008 4.16702C10.8008 4.38803 10.8886 4.6 11.0448 4.75628C11.2011 4.91256 11.4131 5.00035 11.6341 5.00035ZM19.2116 13.9495C19.6945 14.4338 19.9657 15.0898 19.9657 15.7737C19.9657 16.4576 19.6945 17.1136 19.2116 17.5979L18.4533 18.472C11.6283 25.0062 -4.98006 8.40202 1.45327 1.55535L2.4116 0.722021C2.89641 0.252585 3.54655 -0.00710486 4.22136 -0.000866721C4.89617 0.00537141 5.54139 0.277036 6.01744 0.755354C6.04327 0.781188 7.58744 2.78702 7.58744 2.78702C8.04563 3.26838 8.30069 3.9078 8.2996 4.57236C8.29852 5.23692 8.04137 5.8755 7.5816 6.35535L6.6166 7.56869C7.15064 8.86628 7.93582 10.0456 8.92703 11.0388C9.91823 12.032 11.0959 12.8195 12.3924 13.3562L13.6133 12.3854C14.0932 11.926 14.7317 11.6691 15.396 11.6682C16.0604 11.6672 16.6996 11.9223 17.1808 12.3804C17.1808 12.3804 19.1858 13.9237 19.2116 13.9495ZM18.0649 15.1612C18.0649 15.1612 16.0708 13.627 16.0449 13.6012C15.8733 13.431 15.6413 13.3355 15.3995 13.3355C15.1578 13.3355 14.9258 13.431 14.7541 13.6012C14.7316 13.6245 13.0508 14.9637 13.0508 14.9637C12.9375 15.0538 12.8027 15.1129 12.6596 15.1352C12.5166 15.1574 12.3702 15.1419 12.2349 15.0904C10.5553 14.465 9.02972 13.486 7.76147 12.2196C6.49321 10.9532 5.51194 9.42905 4.8841 7.75036C4.82843 7.61323 4.81029 7.46376 4.83152 7.3173C4.85276 7.17085 4.91261 7.03268 5.00494 6.91702C5.00494 6.91702 6.3441 5.23535 6.3666 5.21369C6.53683 5.04201 6.63234 4.81003 6.63234 4.56827C6.63234 4.32651 6.53683 4.09453 6.3666 3.92285C6.34077 3.89785 4.8066 1.90202 4.8066 1.90202C4.63235 1.74578 4.40494 1.6621 4.17098 1.66814C3.93701 1.67419 3.71422 1.76949 3.54827 1.93452L2.58994 2.76785C-2.11173 8.42119 12.2808 22.0154 17.2349 17.3337L17.9941 16.4587C18.172 16.2939 18.2789 16.0664 18.2921 15.8243C18.3053 15.5821 18.2238 15.3444 18.0649 15.1612Z" fill="white"/>
</svg>
