<svg width="16" height="16" viewBox="0 0 16 16" fill="none" xmlns="http://www.w3.org/2000/svg">
<path d="M12.9375 0H2.8125C2.06658 0 1.35121 0.296316 0.823762 0.823762C0.296316 1.35121 0 2.06658 0 2.8125V12.9375C0 13.6834 0.296316 14.3988 0.823762 14.9262C1.35121 15.4537 2.06658 15.75 2.8125 15.75H12.9375C13.6834 15.75 14.3988 15.4537 14.9262 14.9262C15.4537 14.3988 15.75 13.6834 15.75 12.9375V2.8125C15.75 2.06658 15.4537 1.35121 14.9262 0.823762C14.3988 0.296316 13.6834 0 12.9375 0ZM2.8125 1.125H12.9375C13.3851 1.125 13.8143 1.30279 14.1307 1.61926C14.4472 1.93572 14.625 2.36495 14.625 2.8125V5.95687L13.5675 4.89937C13.2511 4.58336 12.8222 4.40586 12.375 4.40586C11.9278 4.40586 11.4989 4.58336 11.1825 4.89937L6.71063 9.39937L5.02313 8.03813C4.72161 7.79137 4.34399 7.65655 3.95437 7.65655C3.56476 7.65655 3.18714 7.79137 2.88563 8.03813L1.125 9.48375V2.8125C1.125 2.36495 1.30279 1.93572 1.61926 1.61926C1.93572 1.30279 2.36495 1.125 2.8125 1.125ZM12.9375 14.625H2.8125C2.36495 14.625 1.93572 14.4472 1.61926 14.1307C1.30279 13.8143 1.125 13.3851 1.125 12.9375V10.9519L3.58875 8.89312C3.6894 8.81039 3.81565 8.76516 3.94594 8.76516C4.07623 8.76516 4.20248 8.81039 4.30312 8.89312L6.40125 10.5806C6.50902 10.6671 6.64484 10.7109 6.78282 10.7036C6.9208 10.6963 7.05128 10.6385 7.14937 10.5413L11.9756 5.70937C12.0279 5.65665 12.0901 5.61481 12.1587 5.58625C12.2272 5.55769 12.3007 5.54299 12.375 5.54299C12.4493 5.54299 12.5228 5.55769 12.5913 5.58625C12.6599 5.61481 12.7221 5.65665 12.7744 5.70937L14.625 7.54313V12.9375C14.625 13.3851 14.4472 13.8143 14.1307 14.1307C13.8143 14.4472 13.3851 14.625 12.9375 14.625Z" fill="#777777"/>
<path d="M4.5 6.1875C4.83376 6.1875 5.16002 6.08853 5.43752 5.90311C5.71503 5.71768 5.93132 5.45413 6.05905 5.14578C6.18677 4.83743 6.22019 4.49813 6.15508 4.17079C6.08996 3.84344 5.92924 3.54276 5.69324 3.30676C5.45724 3.07076 5.15656 2.91004 4.82921 2.84493C4.50187 2.77981 4.16257 2.81323 3.85422 2.94095C3.54587 3.06868 3.28232 3.28497 3.0969 3.56248C2.91147 3.83998 2.8125 4.16624 2.8125 4.5C2.8125 4.94755 2.99029 5.37678 3.30676 5.69324C3.62322 6.00971 4.05245 6.1875 4.5 6.1875ZM4.5 3.9375C4.61125 3.9375 4.72001 3.97049 4.81251 4.0323C4.90501 4.09411 4.97711 4.18196 5.01968 4.28474C5.06226 4.38752 5.0734 4.50062 5.05169 4.60974C5.02999 4.71885 4.97641 4.81908 4.89775 4.89775C4.81908 4.97642 4.71885 5.02999 4.60974 5.05169C4.50062 5.0734 4.38752 5.06226 4.28474 5.01968C4.18196 4.97711 4.09411 4.90501 4.0323 4.81251C3.97049 4.72001 3.9375 4.61125 3.9375 4.5C3.9375 4.35082 3.99676 4.20774 4.10225 4.10225C4.20774 3.99676 4.35082 3.9375 4.5 3.9375Z" fill="#777777"/>
</svg>
