<svg width="16" height="16" viewBox="0 0 16 16" fill="none" xmlns="http://www.w3.org/2000/svg">
  <g clip-path="url(#clip0_1_1696)">
    <path d="M11.3333 12.667C11.3333 14.507 9.84 16.0003 8 16.0003H3.33333C1.49333 16.0003 0 14.507 0 12.667V8.00033C0 6.16033 1.49333 4.667 3.33333 4.667H4C4.36667 4.667 4.66667 4.967 4.66667 5.33367C4.66667 5.70033 4.36667 6.00033 4 6.00033H3.33333C2.23333 6.00033 1.33333 6.90033 1.33333 8.00033V12.667C1.33333 13.767 2.23333 14.667 3.33333 14.667H8C9.1 14.667 10 13.767 10 12.667C10 12.3003 10.3 12.0003 10.6667 12.0003C11.0333 12.0003 11.3333 12.3003 11.3333 12.667ZM15.42 3.927L11.8133 0.200332C11.56 -0.0663351 11.1333 -0.0730017 10.8733 0.186998C10.6133 0.446998 10.6 0.866998 10.86 1.127L14.2867 4.66033H8.66667C6.82667 4.66033 5.33333 6.15367 5.33333 7.99367V11.327C5.33333 11.6937 5.63333 11.9937 6 11.9937C6.36667 11.9937 6.66667 11.6937 6.66667 11.327V7.99367C6.66667 6.89367 7.56667 5.99367 8.66667 5.99367H14.28L10.8533 9.527C10.6 9.79367 10.6 10.2137 10.8667 10.467C10.9933 10.5937 11.1667 10.6537 11.3333 10.6537C11.5 10.6537 11.68 10.587 11.8133 10.4537L15.4133 6.74033C16.1933 5.96033 16.1933 4.69367 15.42 3.92033V3.927Z" fill="#AAAAAA"/>
  </g>
  <defs>
    <clipPath id="clip0_1_1696">
      <rect width="16" height="16" fill="white"/>
    </clipPath>
  </defs>
</svg>