<svg width="16" height="16" viewBox="0 0 16 16" fill="none" xmlns="http://www.w3.org/2000/svg">
<g clip-path="url(#clip0_1_8413)">
<path d="M15.3332 7.33398H13.9998V6.00065C13.9998 5.82384 13.9296 5.65427 13.8046 5.52925C13.6796 5.40422 13.51 5.33398 13.3332 5.33398C13.1564 5.33398 12.9868 5.40422 12.8618 5.52925C12.7367 5.65427 12.6665 5.82384 12.6665 6.00065V7.33398H11.3332C11.1564 7.33398 10.9868 7.40422 10.8618 7.52925C10.7367 7.65427 10.6665 7.82384 10.6665 8.00065C10.6665 8.17746 10.7367 8.34703 10.8618 8.47206C10.9868 8.59708 11.1564 8.66732 11.3332 8.66732H12.6665V10.0007C12.6665 10.1775 12.7367 10.347 12.8618 10.4721C12.9868 10.5971 13.1564 10.6673 13.3332 10.6673C13.51 10.6673 13.6796 10.5971 13.8046 10.4721C13.9296 10.347 13.9998 10.1775 13.9998 10.0007V8.66732H15.3332C15.51 8.66732 15.6796 8.59708 15.8046 8.47206C15.9296 8.34703 15.9998 8.17746 15.9998 8.00065C15.9998 7.82384 15.9296 7.65427 15.8046 7.52925C15.6796 7.40422 15.51 7.33398 15.3332 7.33398Z" fill="#AAAAAA"/>
<path d="M6 8C6.79113 8 7.56449 7.76541 8.22228 7.32588C8.88008 6.88635 9.39277 6.26164 9.69552 5.53074C9.99827 4.79983 10.0775 3.99556 9.92314 3.21964C9.7688 2.44372 9.38784 1.73098 8.82843 1.17157C8.26902 0.612165 7.55629 0.231202 6.78036 0.0768607C6.00444 -0.0774802 5.20017 0.00173314 4.46927 0.304484C3.73836 0.607234 3.11365 1.11992 2.67412 1.77772C2.2346 2.43552 2 3.20888 2 4C2.00106 5.06054 2.42283 6.07734 3.17274 6.82726C3.92266 7.57718 4.93946 7.99894 6 8ZM6 1.33334C6.52742 1.33334 7.04299 1.48973 7.48152 1.78275C7.92005 2.07577 8.26185 2.49224 8.46368 2.97951C8.66551 3.46678 8.71832 4.00296 8.61543 4.52024C8.51253 5.03753 8.25856 5.51268 7.88562 5.88562C7.51268 6.25856 7.03752 6.51254 6.52024 6.61543C6.00296 6.71832 5.46678 6.66551 4.97951 6.46368C4.49224 6.26185 4.07576 5.92005 3.78275 5.48152C3.48973 5.04299 3.33333 4.52742 3.33333 4C3.33333 3.29276 3.61428 2.61448 4.11438 2.11438C4.61448 1.61429 5.29276 1.33334 6 1.33334Z" fill="#AAAAAA"/>
<path d="M6 9.33398C4.40924 9.33575 2.88414 9.96846 1.75931 11.0933C0.634472 12.2181 0.00176457 13.7432 0 15.334C0 15.5108 0.0702379 15.6804 0.195262 15.8054C0.320286 15.9304 0.489856 16.0007 0.666667 16.0007C0.843478 16.0007 1.01305 15.9304 1.13807 15.8054C1.2631 15.6804 1.33333 15.5108 1.33333 15.334C1.33333 14.0963 1.825 12.9093 2.70017 12.0342C3.57534 11.159 4.76232 10.6673 6 10.6673C7.23768 10.6673 8.42466 11.159 9.29983 12.0342C10.175 12.9093 10.6667 14.0963 10.6667 15.334C10.6667 15.5108 10.7369 15.6804 10.8619 15.8054C10.987 15.9304 11.1565 16.0007 11.3333 16.0007C11.5101 16.0007 11.6797 15.9304 11.8047 15.8054C11.9298 15.6804 12 15.5108 12 15.334C11.9982 13.7432 11.3655 12.2181 10.2407 11.0933C9.11586 9.96846 7.59076 9.33575 6 9.33398Z" fill="#AAAAAA"/>
</g>
<defs>
<clipPath id="clip0_1_8413">
<rect width="16" height="16" fill="white"/>
</clipPath>
</defs>
</svg>
