<svg width="15" height="15" viewBox="0 0 15 15" fill="none" xmlns="http://www.w3.org/2000/svg">
<path d="M6.48376 0.690722C6.78311 -0.230589 8.08652 -0.230588 8.38587 0.690722L9.45544 3.98252C9.58931 4.39454 9.97327 4.6735 10.4065 4.6735H13.8677C14.8364 4.6735 15.2392 5.91312 14.4555 6.48252L11.6553 8.51696C11.3048 8.7716 11.1582 9.22297 11.292 9.63499L12.3616 12.9268C12.661 13.8481 11.6065 14.6142 10.8228 14.0448L8.0226 12.0104C7.67211 11.7557 7.19752 11.7557 6.84703 12.0104L4.04686 14.0448C3.26315 14.6142 2.20867 13.8481 2.50802 12.9268L3.57759 9.63499C3.71146 9.22297 3.5648 8.7716 3.21432 8.51696L0.414147 6.48252C-0.369566 5.91312 0.0332093 4.6735 1.00193 4.6735H4.46313C4.89636 4.6735 5.28031 4.39454 5.41419 3.98252L6.48376 0.690722Z" fill="#363636"/>
</svg>
