<svg width="9" height="9" viewBox="0 0 9 9" fill="none" xmlns="http://www.w3.org/2000/svg">
<path d="M3.18031 0.65267C3.50247 -0.217948 4.73386 -0.217948 5.05602 0.65267L5.57913 2.06638C5.68042 2.3401 5.89623 2.55591 6.16995 2.65719L7.58366 3.18031C8.45428 3.50247 8.45428 4.73386 7.58366 5.05602L6.16995 5.57913C5.89623 5.68042 5.68042 5.89623 5.57913 6.16995L5.05602 7.58366C4.73386 8.45428 3.50247 8.45428 3.18031 7.58366L2.65719 6.16995C2.55591 5.89623 2.3401 5.68042 2.06638 5.57913L0.65267 5.05602C-0.217948 4.73386 -0.217948 3.50247 0.65267 3.18031L2.06638 2.65719C2.3401 2.55591 2.55591 2.3401 2.65719 2.06638L3.18031 0.65267Z" fill="white"/>
</svg>
