<svg width="18" height="18" viewBox="0 0 18 18" fill="none" xmlns="http://www.w3.org/2000/svg">
<g clip-path="url(#clip0_67_1213)">
<path fill-rule="evenodd" clip-rule="evenodd" d="M8.57143 0C3.83786 0 0 3.83786 0 8.57143C0 13.305 3.83786 17.1429 8.57143 17.1429C13.305 17.1429 17.1429 13.305 17.1429 8.57143C17.1429 3.83786 13.305 0 8.57143 0ZM12.5443 5.82929C12.4157 7.18429 11.8571 10.4736 11.5736 11.9914C11.4536 12.6343 11.2164 12.8493 10.9879 12.87C10.49 12.9157 10.1121 12.5407 9.63 12.225C8.87571 11.7307 8.44929 11.4229 7.71714 10.94C6.87071 10.3821 7.41929 10.0757 7.90143 9.575C8.02786 9.44357 10.2207 7.44857 10.2636 7.26786C10.2686 7.245 10.2743 7.16071 10.2236 7.11643C10.1729 7.07214 10.0993 7.08714 10.0464 7.09929C9.97071 7.11643 8.76571 7.91286 6.43071 9.48857C6.08857 9.72357 5.77857 9.83786 5.50071 9.83214C5.195 9.82571 4.60643 9.65929 4.16857 9.51643C3.63214 9.34214 3.205 9.24928 3.24214 8.95357C3.26143 8.79928 3.47357 8.64143 3.87929 8.48C6.37786 7.39143 8.04428 6.67357 8.87786 6.32643C11.2586 5.33643 11.7529 5.16429 12.0757 5.15857C12.48 5.15286 12.5771 5.48643 12.5443 5.82929Z" fill="white"/>
</g>
<defs>
<clipPath id="clip0_67_1213">
<rect width="17.1429" height="17.1429" fill="white"/>
</clipPath>
</defs>
</svg>
