<svg width="16" height="16" viewBox="0 0 16 16" fill="none" xmlns="http://www.w3.org/2000/svg">
<g clip-path="url(#clip0_1_9919)">
<path d="M7.33333 6.66667V7.33333C7.33333 7.70133 7.03467 8 6.66667 8H3.33333C2.96533 8 2.66667 7.70133 2.66667 7.33333V6.66667C2.66667 6.29867 2.96533 6 3.33333 6H6.66667C7.03467 6 7.33333 6.29867 7.33333 6.66667ZM16 4.33333V11.3333C16 11.5713 15.8733 11.792 15.6667 11.9107C15.4607 12.0293 15.2067 12.0293 15.0007 11.9107L13.554 11.0773L12.376 11.8833C12.2613 11.962 12.13 12 12.0007 12C11.788 12 11.5787 11.8987 11.45 11.7093C11.242 11.406 11.32 10.9913 11.624 10.7827L13.1473 9.74C13.3573 9.59533 13.6347 9.584 13.856 9.71267L14.6667 10.1793V4.33333C14.6667 2.67933 13.3207 1.33333 11.6667 1.33333C10.1673 1.33333 8.93533 2.416 8.71267 3.87667C9.48867 4.41933 10 5.31667 10 6.33333V13C10 14.654 8.654 16 7 16H3C1.346 16 0 14.654 0 13V6.33333C0 5.29533 0.53 4.38 1.33333 3.84133V3.33333C1.33333 1.49533 2.82867 0 4.66667 0H11.6667C14.056 0 16 1.944 16 4.33333ZM8.66667 6.33333C8.66667 5.414 7.91933 4.66667 7 4.66667H3C2.08067 4.66667 1.33333 5.414 1.33333 6.33333V13C1.33333 13.9193 2.08067 14.6667 3 14.6667H7C7.91933 14.6667 8.66667 13.9193 8.66667 13V6.33333ZM7.44267 3.378C7.618 2.58933 8.00067 1.88933 8.53267 1.33333H4.66667C3.564 1.33333 2.66667 2.23067 2.66667 3.33333V3.36733C2.77733 3.35467 2.886 3.33333 3 3.33333H7C7.15133 3.33333 7.29733 3.356 7.44267 3.378ZM6.66667 9.33333H6C5.63133 9.33333 5.33333 9.63133 5.33333 10C5.33333 10.3687 5.63133 10.6667 6 10.6667H6.66667C7.03533 10.6667 7.33333 10.3687 7.33333 10C7.33333 9.63133 7.03533 9.33333 6.66667 9.33333ZM6.66667 12H6C5.63133 12 5.33333 12.298 5.33333 12.6667C5.33333 13.0353 5.63133 13.3333 6 13.3333H6.66667C7.03533 13.3333 7.33333 13.0353 7.33333 12.6667C7.33333 12.298 7.03533 12 6.66667 12ZM4 9.33333H3.33333C2.96467 9.33333 2.66667 9.63133 2.66667 10C2.66667 10.3687 2.96467 10.6667 3.33333 10.6667H4C4.36867 10.6667 4.66667 10.3687 4.66667 10C4.66667 9.63133 4.36867 9.33333 4 9.33333ZM4 12H3.33333C2.96467 12 2.66667 12.298 2.66667 12.6667C2.66667 13.0353 2.96467 13.3333 3.33333 13.3333H4C4.36867 13.3333 4.66667 13.0353 4.66667 12.6667C4.66667 12.298 4.36867 12 4 12Z" fill="#AAAAAA"/>
</g>
<defs>
<clipPath id="clip0_1_9919">
<rect width="16" height="16" fill="white"/>
</clipPath>
</defs>
</svg>
