<svg width="20" height="20" viewBox="0 0 20 20" fill="none" xmlns="http://www.w3.org/2000/svg">
<path d="M13.3333 0H13.225C12.8521 0.00354318 12.4908 0.130844 12.1981 0.361916C11.9053 0.592988 11.6976 0.914744 11.6075 1.27667C11.511 1.62903 11.3014 1.93994 11.011 2.16155C10.7205 2.38316 10.3653 2.5032 10 2.5032C9.63467 2.5032 9.27945 2.38316 8.98901 2.16155C8.69856 1.93994 8.48898 1.62903 8.3925 1.27667C8.30241 0.914744 8.09468 0.592988 7.80192 0.361916C7.50916 0.130844 7.14795 0.00354318 6.775 0L6.66667 0C5.562 0.00132321 4.50296 0.440735 3.72185 1.22185C2.94073 2.00296 2.50132 3.062 2.5 4.16667V17.5C2.5 18.163 2.76339 18.7989 3.23223 19.2678C3.70107 19.7366 4.33696 20 5 20H6.775C7.14795 19.9965 7.50916 19.8692 7.80192 19.6381C8.09468 19.407 8.30241 19.0853 8.3925 18.7233C8.48898 18.371 8.69856 18.0601 8.98901 17.8385C9.27945 17.6168 9.63467 17.4968 10 17.4968C10.3653 17.4968 10.7205 17.6168 11.011 17.8385C11.3014 18.0601 11.511 18.371 11.6075 18.7233C11.6976 19.0853 11.9053 19.407 12.1981 19.6381C12.4908 19.8692 12.8521 19.9965 13.225 20H15C15.663 20 16.2989 19.7366 16.7678 19.2678C17.2366 18.7989 17.5 18.163 17.5 17.5V4.16667C17.4987 3.062 17.0593 2.00296 16.2782 1.22185C15.497 0.440735 14.438 0.00132321 13.3333 0ZM15 18.3333L13.2142 18.2808C13.0184 17.5737 12.5949 16.9509 12.0091 16.509C11.4233 16.0671 10.7082 15.8308 9.97444 15.8368C9.24073 15.8428 8.52949 16.0907 7.95102 16.5421C7.37255 16.9934 6.95917 17.6231 6.775 18.3333H5C4.77899 18.3333 4.56702 18.2455 4.41074 18.0893C4.25446 17.933 4.16667 17.721 4.16667 17.5V14.1667H5.83333C6.05435 14.1667 6.26631 14.0789 6.42259 13.9226C6.57887 13.7663 6.66667 13.5543 6.66667 13.3333C6.66667 13.1123 6.57887 12.9004 6.42259 12.7441C6.26631 12.5878 6.05435 12.5 5.83333 12.5H4.16667V4.16667C4.16667 3.50363 4.43006 2.86774 4.8989 2.3989C5.36774 1.93006 6.00363 1.66667 6.66667 1.66667L6.78583 1.71917C6.98102 2.42202 7.40083 3.0417 7.98118 3.48363C8.56153 3.92555 9.27055 4.16543 10 4.16667C10.7393 4.16038 11.4563 3.91275 12.0419 3.46147C12.6275 3.01019 13.0497 2.37995 13.2442 1.66667H13.3333C13.9964 1.66667 14.6323 1.93006 15.1011 2.3989C15.5699 2.86774 15.8333 3.50363 15.8333 4.16667V12.5H14.1667C13.9457 12.5 13.7337 12.5878 13.5774 12.7441C13.4211 12.9004 13.3333 13.1123 13.3333 13.3333C13.3333 13.5543 13.4211 13.7663 13.5774 13.9226C13.7337 14.0789 13.9457 14.1667 14.1667 14.1667H15.8333V17.5C15.8333 17.721 15.7455 17.933 15.5893 18.0893C15.433 18.2455 15.221 18.3333 15 18.3333Z" fill="white"/>
<path d="M10.833 12.5H9.16634C8.94533 12.5 8.73337 12.5878 8.57709 12.7441C8.42081 12.9004 8.33301 13.1123 8.33301 13.3333C8.33301 13.5543 8.42081 13.7663 8.57709 13.9226C8.73337 14.0789 8.94533 14.1667 9.16634 14.1667H10.833C11.054 14.1667 11.266 14.0789 11.4223 13.9226C11.5785 13.7663 11.6663 13.5543 11.6663 13.3333C11.6663 13.1123 11.5785 12.9004 11.4223 12.7441C11.266 12.5878 11.054 12.5 10.833 12.5Z" fill="white"/>
</svg>
