<svg width="24" height="24" viewBox="0 0 24 24" fill="none" xmlns="http://www.w3.org/2000/svg">
<g clip-path="url(#clip0_67_1096)">
<path d="M14.5998 21.2996C14.2998 21.5256 13.9808 21.7636 13.7098 21.9996H15.9998C16.265 21.9996 16.5194 22.1049 16.7069 22.2925C16.8944 22.48 16.9998 22.7343 16.9998 22.9996C16.9998 23.2648 16.8944 23.5191 16.7069 23.7067C16.5194 23.8942 16.265 23.9996 15.9998 23.9996H11.9998C11.7346 23.9996 11.4802 23.8942 11.2927 23.7067C11.1052 23.5191 10.9998 23.2648 10.9998 22.9996C10.9998 21.4996 12.2748 20.5436 13.3998 19.6996C14.1498 19.1376 14.9998 18.4996 14.9998 17.9996C14.9998 17.7343 14.8944 17.48 14.7069 17.2925C14.5194 17.1049 14.265 16.9996 13.9998 16.9996C13.7346 16.9996 13.4802 17.1049 13.2927 17.2925C13.1052 17.48 12.9998 17.7343 12.9998 17.9996C12.9998 18.2648 12.8944 18.5191 12.7069 18.7067C12.5194 18.8942 12.265 18.9996 11.9998 18.9996C11.7346 18.9996 11.4802 18.8942 11.2927 18.7067C11.1052 18.5191 10.9998 18.2648 10.9998 17.9996C10.9998 17.2039 11.3159 16.4408 11.8785 15.8782C12.4411 15.3156 13.2042 14.9996 13.9998 14.9996C14.7955 14.9996 15.5585 15.3156 16.1211 15.8782C16.6837 16.4408 16.9998 17.2039 16.9998 17.9996C16.9998 19.4996 15.7248 20.4556 14.5998 21.2996ZM22.9998 14.9996C22.7346 14.9996 22.4802 15.1049 22.2927 15.2925C22.1052 15.48 21.9998 15.7343 21.9998 15.9996V18.9996H20.9998C20.7346 18.9996 20.4802 18.8942 20.2927 18.7067C20.1052 18.5191 19.9998 18.2648 19.9998 17.9996V15.9996C19.9998 15.7343 19.8944 15.48 19.7069 15.2925C19.5194 15.1049 19.265 14.9996 18.9998 14.9996C18.7346 14.9996 18.4802 15.1049 18.2927 15.2925C18.1052 15.48 17.9998 15.7343 17.9998 15.9996V17.9996C17.9998 18.7952 18.3159 19.5583 18.8785 20.1209C19.4411 20.6835 20.2042 20.9996 20.9998 20.9996H21.9998V22.9996C21.9998 23.2648 22.1052 23.5191 22.2927 23.7067C22.4802 23.8942 22.7346 23.9996 22.9998 23.9996C23.265 23.9996 23.5194 23.8942 23.7069 23.7067C23.8944 23.5191 23.9998 23.2648 23.9998 22.9996V15.9996C23.9998 15.7343 23.8944 15.48 23.7069 15.2925C23.5194 15.1049 23.265 14.9996 22.9998 14.9996ZM12.9998 11.9996V6.99956C12.9998 6.73434 12.8944 6.47999 12.7069 6.29245C12.5194 6.10492 12.265 5.99956 11.9998 5.99956C11.7346 5.99956 11.4802 6.10492 11.2927 6.29245C11.1052 6.47999 10.9998 6.73434 10.9998 6.99956V10.9996H7.9998C7.73459 10.9996 7.48023 11.1049 7.2927 11.2925C7.10516 11.48 6.9998 11.7343 6.9998 11.9996C6.9998 12.2648 7.10516 12.5191 7.2927 12.7067C7.48023 12.8942 7.73459 12.9996 7.9998 12.9996H11.9998C12.265 12.9996 12.5194 12.8942 12.7069 12.7067C12.8944 12.5191 12.9998 12.2648 12.9998 11.9996ZM22.9998 1.99956C22.7346 1.99956 22.4802 2.10492 22.2927 2.29245C22.1052 2.47999 21.9998 2.73434 21.9998 2.99956V5.37356C20.9579 3.80113 19.5599 2.49648 17.9194 1.56546C16.2789 0.634445 14.4419 0.103285 12.5577 0.0150807C10.6735 -0.0731234 8.79497 0.284113 7.07463 1.0578C5.3543 1.8315 3.84059 2.99985 2.65632 4.46806C1.47205 5.93628 0.650587 7.663 0.258576 9.50812C-0.133435 11.3532 -0.0849487 13.2648 0.400101 15.0877C0.88515 16.9105 1.7931 18.5934 3.05028 19.9997C4.30746 21.406 5.87846 22.4961 7.6358 23.1816C7.75194 23.2264 7.87533 23.2494 7.9998 23.2496C8.23316 23.2499 8.4593 23.1687 8.63905 23.0198C8.8188 22.871 8.94085 22.664 8.98406 22.4347C9.02726 22.2054 8.98891 21.9682 8.87563 21.7641C8.76236 21.5601 8.58129 21.4021 8.3638 21.3176C6.87183 20.7406 5.54002 19.8142 4.48019 18.6161C3.42035 17.4179 2.66341 15.983 2.27291 14.4318C1.88241 12.8805 1.86975 11.2582 2.23598 9.7011C2.60221 8.14395 3.33665 6.69739 4.37765 5.48283C5.41865 4.26828 6.73583 3.32118 8.21861 2.72103C9.7014 2.12089 11.3065 1.88522 12.8992 2.03381C14.492 2.18239 16.0258 2.7109 17.372 3.57495C18.7182 4.43901 19.8374 5.61341 20.6358 6.99956H17.9998C17.7346 6.99956 17.4802 7.10492 17.2927 7.29245C17.1052 7.47999 16.9998 7.73434 16.9998 7.99956C16.9998 8.26478 17.1052 8.51913 17.2927 8.70667C17.4802 8.8942 17.7346 8.99956 17.9998 8.99956H20.9998C21.7955 8.99956 22.5585 8.68349 23.1211 8.12088C23.6837 7.55827 23.9998 6.79521 23.9998 5.99956V2.99956C23.9998 2.73434 23.8944 2.47999 23.7069 2.29245C23.5194 2.10492 23.265 1.99956 22.9998 1.99956Z" fill="#363636"/>
</g>
<defs>
<clipPath id="clip0_67_1096">
<rect width="24" height="24" fill="white"/>
</clipPath>
</defs>
</svg>
