<svg width="26" height="26" viewBox="0 0 26 26" fill="none" xmlns="http://www.w3.org/2000/svg">
<path d="M13.4063 5.37451H19.0125V12.1101L17.5866 10.6842C17.5088 10.6176 17.4089 10.5829 17.3066 10.5868C17.2044 10.5908 17.1074 10.6332 17.0351 10.7055C16.9627 10.7779 16.9203 10.8748 16.9164 10.9771C16.9124 11.0793 16.9472 11.1793 17.0138 11.257L19.1303 13.3736C19.2033 13.4482 19.3022 13.4918 19.4066 13.4954C19.4597 13.4948 19.5121 13.4838 19.5609 13.4629C19.6062 13.4435 19.6474 13.4159 19.6828 13.3817L21.8034 11.2611C21.87 11.1834 21.9048 11.0834 21.9008 10.9811C21.8969 10.8789 21.8545 10.7819 21.7821 10.7096C21.7098 10.6372 21.6128 10.5948 21.5106 10.5909C21.4083 10.5869 21.3083 10.6217 21.2306 10.6883L19.825 12.1101V4.96826C19.825 4.86052 19.7822 4.75719 19.706 4.681C19.6298 4.60481 19.5265 4.56201 19.4188 4.56201H13.4063C13.2985 4.56201 13.1952 4.60481 13.119 4.681C13.0428 4.75719 13 4.86052 13 4.96826C13 5.07601 13.0428 5.17934 13.119 5.25552C13.1952 5.33171 13.2985 5.37451 13.4063 5.37451Z" fill="#8C8C8C"/>
<path d="M13.4057 20.6253H7.82386V13.8897L9.24979 15.3156C9.32751 15.3822 9.42748 15.417 9.52972 15.413C9.63197 15.4091 9.72895 15.3667 9.8013 15.2943C9.87366 15.222 9.91604 15.125 9.91999 15.0228C9.92394 14.9205 9.88916 14.8205 9.82261 14.7428L7.71823 12.6263C7.64523 12.5517 7.5463 12.508 7.44198 12.5044C7.38753 12.5045 7.33365 12.5156 7.28354 12.5369C7.23833 12.5564 7.19704 12.5839 7.16167 12.6181L5.04104 14.7388C4.97449 14.8165 4.93971 14.9165 4.94366 15.0187C4.94761 15.1209 4.99 15.2179 5.06235 15.2903C5.1347 15.3626 5.23169 15.405 5.33393 15.409C5.43617 15.4129 5.53614 15.3781 5.61386 15.3116L7.04386 13.8816V21.0316C7.04386 21.1393 7.08666 21.2427 7.16284 21.3188C7.23903 21.395 7.34236 21.4378 7.45011 21.4378H13.4057C13.5135 21.4378 13.6168 21.395 13.693 21.3188C13.7692 21.2427 13.812 21.1393 13.812 21.0316C13.812 20.9238 13.7692 20.8205 13.693 20.7443C13.6168 20.6681 13.5135 20.6253 13.4057 20.6253Z" fill="#8C8C8C"/>
<path d="M12.0126 11.7364V6.79233L12.9307 7.71858C13.0085 7.78514 13.1084 7.81992 13.2107 7.81597C13.3129 7.81202 13.4099 7.76963 13.4822 7.69728C13.5546 7.62493 13.597 7.52794 13.6009 7.4257C13.6049 7.32346 13.5701 7.22349 13.5036 7.14577L7.71855 1.3364C7.64244 1.26073 7.53947 1.21826 7.43215 1.21826C7.32482 1.21826 7.22186 1.26073 7.14574 1.3364L5.89043 2.57546V1.78733C5.89043 1.67959 5.84763 1.57626 5.77144 1.50007C5.69525 1.42389 5.59192 1.38108 5.48418 1.38108H3.85918C3.75143 1.38108 3.6481 1.42389 3.57191 1.50007C3.49573 1.57626 3.45293 1.67959 3.45293 1.78733V5.00077L2.94105 5.52483L1.31605 7.14983C1.24063 7.22795 1.19933 7.33283 1.20123 7.44139C1.20314 7.54996 1.24809 7.65332 1.32621 7.72874C1.40432 7.80416 1.5092 7.84546 1.61776 7.84356C1.72633 7.84165 1.82969 7.7967 1.90511 7.71858L2.82324 6.80046V11.7364C2.82324 11.8441 2.86604 11.9475 2.94223 12.0237C3.01841 12.0998 3.12175 12.1426 3.22949 12.1426H11.6064C11.7141 12.1426 11.8174 12.0998 11.8936 12.0237C11.9698 11.9475 12.0126 11.8441 12.0126 11.7364ZM4.28168 2.19358H5.09418V3.38796L4.28168 4.20046V2.19358ZM3.63574 11.3301V5.97983L5.77261 3.84296L7.41793 2.19765L11.2001 5.97983V11.3301H3.63574Z" fill="#8C8C8C"/>
<path d="M19.4311 17.6554C19.6393 17.6495 19.8417 17.7238 19.9967 17.8629C20.1517 18.002 20.2473 18.1953 20.2639 18.4029C20.2762 18.5143 20.3315 18.6165 20.418 18.6878C20.5044 18.7591 20.6153 18.7939 20.727 18.7848C20.7826 18.7928 20.8393 18.7891 20.8934 18.7741C20.9475 18.759 20.9979 18.7329 21.0414 18.6974C21.085 18.6619 21.1206 18.6178 21.1462 18.5678C21.1718 18.5178 21.1868 18.463 21.1902 18.407C21.1735 18.0752 21.0503 17.7576 20.8387 17.5015C20.6272 17.2453 20.3387 17.0642 20.0161 16.9851L19.8942 16.9485V16.6804C19.8932 16.6306 19.8815 16.5815 19.8597 16.5366C19.838 16.4917 19.8068 16.4521 19.7683 16.4204C19.6741 16.3408 19.5544 16.2975 19.4311 16.2985C19.3755 16.2906 19.3189 16.2942 19.2647 16.3093C19.2106 16.3243 19.1602 16.3504 19.1167 16.3859C19.0732 16.4214 19.0375 16.4655 19.0119 16.5155C18.9863 16.5655 18.9713 16.6203 18.968 16.6764V16.8185V16.9445L18.8502 16.981C18.5305 17.0595 18.2444 17.2383 18.0338 17.4913C17.8233 17.7443 17.6993 18.0581 17.6802 18.3867C17.6802 19.1992 18.4642 19.8898 19.4352 19.8979C19.578 19.9159 19.7126 19.9748 19.8227 20.0674C19.9329 20.16 20.014 20.2825 20.0563 20.4201C20.0985 20.5577 20.1002 20.7046 20.061 20.8431C20.0218 20.9816 19.9434 21.1059 19.8353 21.2009C19.7272 21.296 19.5939 21.3578 19.4515 21.3789C19.3092 21.4001 19.1637 21.3797 19.0326 21.3201C18.9016 21.2606 18.7905 21.1645 18.7127 21.0434C18.6349 20.9223 18.5938 20.7812 18.5942 20.6373C18.5819 20.5259 18.5266 20.4237 18.4402 20.3524C18.3537 20.2811 18.2428 20.2463 18.1311 20.2554C18.0755 20.2474 18.0188 20.2511 17.9647 20.2661C17.9106 20.2812 17.8602 20.3073 17.8167 20.3428C17.7732 20.3783 17.7375 20.4224 17.7119 20.4724C17.6863 20.5224 17.6713 20.5772 17.668 20.6332C17.6848 20.9637 17.8071 21.2802 18.0169 21.5361C18.2268 21.792 18.5131 21.9739 18.8339 22.0551L18.9517 22.0957V22.3435C18.963 22.4546 19.0175 22.5568 19.1033 22.6282C19.1891 22.6996 19.2995 22.7345 19.4108 22.7254C19.4658 22.7316 19.5214 22.7264 19.5744 22.7103C19.6273 22.6942 19.6764 22.6675 19.7186 22.6317C19.7608 22.596 19.7953 22.552 19.8199 22.5024C19.8445 22.4528 19.8587 22.3988 19.8617 22.3435V22.2217V22.0957L19.9795 22.0592C20.3021 21.9827 20.5913 21.8043 20.8043 21.5503C21.0173 21.2963 21.1427 20.9804 21.1617 20.6495C21.1617 19.837 20.3777 19.1464 19.4067 19.1382C19.3026 19.1491 19.1973 19.138 19.0977 19.1056C18.9981 19.0732 18.9064 19.0203 18.8286 18.9502C18.7508 18.8801 18.6886 18.7944 18.646 18.6988C18.6034 18.6031 18.5814 18.4995 18.5814 18.3948C18.5814 18.2901 18.6034 18.1865 18.646 18.0908C18.6886 17.9951 18.7508 17.9095 18.8286 17.8394C18.9064 17.7693 18.9981 17.7163 19.0977 17.6839C19.1973 17.6516 19.3026 17.6404 19.4067 17.6514L19.4311 17.6554Z" fill="#8C8C8C"/>
<path d="M23.2331 15.7865C22.2274 14.7847 20.8664 14.221 19.4469 14.2184H19.4184C18.0104 14.2086 16.6557 14.7564 15.6502 15.7421C14.6447 16.7278 14.0701 18.0714 14.0519 19.4793C14.0474 20.1754 14.1828 20.8653 14.4501 21.508C14.7173 22.1508 15.111 22.7333 15.6078 23.2209C16.6148 24.2198 17.9756 24.7805 19.3941 24.7809H19.4225C20.8277 24.7885 22.1791 24.2409 23.1827 23.2572C24.1862 22.2734 24.7606 20.9332 24.7809 19.5281C24.7865 18.8326 24.6524 18.143 24.3865 17.5003C24.1206 16.8576 23.7284 16.2748 23.2331 15.7865ZM19.4184 23.9684H19.3941C18.1889 23.9684 17.0325 23.4924 16.1766 22.644C15.7594 22.2337 15.4284 21.7442 15.2031 21.2043C14.9778 20.6643 14.8626 20.0847 14.8644 19.4996C14.8772 18.3036 15.3639 17.1615 16.2176 16.3238C17.0713 15.4861 18.2224 15.0211 19.4184 15.0309H19.4428C20.648 15.0309 21.8044 15.5069 22.6603 16.3553C23.0797 16.7687 23.4116 17.2624 23.6363 17.8067C23.8611 18.3511 23.974 18.9351 23.9684 19.524C23.9492 20.7151 23.4603 21.8503 22.6081 22.6827C21.756 23.515 20.6096 23.9771 19.4184 23.9684Z" fill="#8C8C8C"/>
</svg>
