<svg width="16" height="16" viewBox="0 0 16 16" fill="none" xmlns="http://www.w3.org/2000/svg">
<g clip-path="url(#clip0_1_9955)">
<path d="M15.3337 7.3335H14.0003V6.00016C14.0003 5.82335 13.9301 5.65378 13.8051 5.52876C13.68 5.40373 13.5105 5.3335 13.3337 5.3335C13.1568 5.3335 12.9873 5.40373 12.8623 5.52876C12.7372 5.65378 12.667 5.82335 12.667 6.00016V7.3335H11.3337C11.1568 7.3335 10.9873 7.40373 10.8623 7.52876C10.7372 7.65378 10.667 7.82335 10.667 8.00016C10.667 8.17697 10.7372 8.34654 10.8623 8.47157C10.9873 8.59659 11.1568 8.66683 11.3337 8.66683H12.667V10.0002C12.667 10.177 12.7372 10.3465 12.8623 10.4716C12.9873 10.5966 13.1568 10.6668 13.3337 10.6668C13.5105 10.6668 13.68 10.5966 13.8051 10.4716C13.9301 10.3465 14.0003 10.177 14.0003 10.0002V8.66683H15.3337C15.5105 8.66683 15.68 8.59659 15.8051 8.47157C15.9301 8.34654 16.0003 8.17697 16.0003 8.00016C16.0003 7.82335 15.9301 7.65378 15.8051 7.52876C15.68 7.40373 15.5105 7.3335 15.3337 7.3335Z" fill="#8CFF45"/>
<path d="M6 8C6.79113 8 7.56449 7.76541 8.22228 7.32588C8.88008 6.88635 9.39277 6.26164 9.69552 5.53074C9.99827 4.79983 10.0775 3.99556 9.92314 3.21964C9.7688 2.44372 9.38784 1.73098 8.82843 1.17157C8.26902 0.612165 7.55629 0.231202 6.78036 0.0768607C6.00444 -0.0774802 5.20017 0.00173314 4.46927 0.304484C3.73836 0.607234 3.11365 1.11992 2.67412 1.77772C2.2346 2.43552 2 3.20888 2 4C2.00106 5.06054 2.42283 6.07734 3.17274 6.82726C3.92266 7.57718 4.93946 7.99894 6 8ZM6 1.33334C6.52742 1.33334 7.04299 1.48973 7.48152 1.78275C7.92005 2.07577 8.26185 2.49224 8.46368 2.97951C8.66551 3.46678 8.71832 4.00296 8.61543 4.52024C8.51253 5.03753 8.25856 5.51268 7.88562 5.88562C7.51268 6.25856 7.03752 6.51254 6.52024 6.61543C6.00296 6.71832 5.46678 6.66551 4.97951 6.46368C4.49224 6.26185 4.07576 5.92005 3.78275 5.48152C3.48973 5.04299 3.33333 4.52742 3.33333 4C3.33333 3.29276 3.61428 2.61448 4.11438 2.11438C4.61448 1.61429 5.29276 1.33334 6 1.33334Z" fill="#8CFF45"/>
<path d="M6 9.3335C4.40924 9.33526 2.88414 9.96797 1.75931 11.0928C0.634472 12.2176 0.00176457 13.7427 0 15.3335C0 15.5103 0.0702379 15.6799 0.195262 15.8049C0.320286 15.9299 0.489856 16.0002 0.666667 16.0002C0.843478 16.0002 1.01305 15.9299 1.13807 15.8049C1.2631 15.6799 1.33333 15.5103 1.33333 15.3335C1.33333 14.0958 1.825 12.9088 2.70017 12.0337C3.57534 11.1585 4.76232 10.6668 6 10.6668C7.23768 10.6668 8.42466 11.1585 9.29983 12.0337C10.175 12.9088 10.6667 14.0958 10.6667 15.3335C10.6667 15.5103 10.7369 15.6799 10.8619 15.8049C10.987 15.9299 11.1565 16.0002 11.3333 16.0002C11.5101 16.0002 11.6797 15.9299 11.8047 15.8049C11.9298 15.6799 12 15.5103 12 15.3335C11.9982 13.7427 11.3655 12.2176 10.2407 11.0928C9.11586 9.96797 7.59076 9.33526 6 9.3335Z" fill="#8CFF45"/>
</g>
<defs>
<clipPath id="clip0_1_9955">
<rect width="16" height="16" fill="white"/>
</clipPath>
</defs>
</svg>
