<svg width="18" height="18" viewBox="0 0 18 18" fill="none" xmlns="http://www.w3.org/2000/svg">
<path fill-rule="evenodd" clip-rule="evenodd" d="M12.4393 10.2729C12.2264 10.1664 11.1828 9.65358 10.9886 9.58216C10.7943 9.51144 10.6528 9.47644 10.5107 9.6893C10.3693 9.90073 9.96284 10.3793 9.83927 10.5207C9.71498 10.6629 9.59141 10.68 9.37927 10.5743C9.16713 10.4672 8.48284 10.2436 7.67213 9.52073C7.04142 8.95787 6.61499 8.26287 6.49142 8.05002C6.36785 7.83787 6.47785 7.72287 6.58427 7.61716C6.67999 7.52216 6.79642 7.3693 6.90284 7.24573C7.00927 7.12145 7.04427 7.03287 7.11499 6.89073C7.18642 6.7493 7.1507 6.62573 7.09713 6.5193C7.04427 6.41288 6.61999 5.36788 6.44285 4.94288C6.2707 4.52931 6.0957 4.58574 5.9657 4.57859C5.84142 4.57288 5.69999 4.57145 5.55856 4.57145C5.41713 4.57145 5.18713 4.62431 4.99285 4.83716C4.79785 5.04931 4.24999 5.56288 4.24999 6.60788C4.24999 7.65216 5.00999 8.66144 5.11642 8.80359C5.22285 8.94501 6.61285 11.0893 8.74213 12.0086C9.24927 12.2272 9.64427 12.3579 9.95213 12.455C10.4607 12.6172 10.9236 12.5943 11.2893 12.5393C11.6964 12.4786 12.545 12.0257 12.7221 11.53C12.8986 11.0343 12.8985 10.6093 12.8457 10.5207C12.7928 10.4322 12.6514 10.3793 12.4385 10.2729H12.4393ZM8.56641 15.5607H8.56356C7.29887 15.5609 6.0574 15.221 4.96928 14.5764L4.71213 14.4236L2.03928 15.125L2.75285 12.5193L2.585 12.2522C1.87795 11.1267 1.50378 9.82414 1.50571 8.49501C1.50714 4.60216 4.67428 1.43503 8.56927 1.43503C10.455 1.43503 12.2278 2.17074 13.5607 3.50502C14.2181 4.15972 14.7392 4.93828 15.0937 5.79566C15.4483 6.65304 15.6294 7.57222 15.6264 8.50001C15.625 12.3929 12.4578 15.5607 8.56641 15.5607ZM14.575 2.49145C13.788 1.69926 12.8516 1.07113 11.82 0.643457C10.7885 0.215789 9.68237 -0.0029116 8.5657 2.92696e-05C3.88428 2.92696e-05 0.072857 3.81074 0.0714284 8.4943C0.0692592 9.98483 0.460267 11.4496 1.205 12.7407L0 17.1429L4.50285 15.9614C5.74847 16.6401 7.14434 16.9957 8.56284 16.9957H8.56641C13.2478 16.9957 17.0593 13.185 17.0607 8.50073C17.0641 7.3845 16.8462 6.27866 16.4196 5.24719C15.9929 4.21571 15.3659 3.27907 14.575 2.49145Z" fill="white"/>
</svg>
