<svg width="14" height="13" viewBox="0 0 14 13" fill="none" xmlns="http://www.w3.org/2000/svg">
<path d="M6.09478 0.34536C6.24446 -0.115296 6.89616 -0.115294 7.04584 0.345361L8.25417 4.06421C8.32111 4.27022 8.51308 4.4097 8.7297 4.4097H12.6399C13.1243 4.4097 13.3257 5.02951 12.9338 5.31421L9.77037 7.61258C9.59513 7.7399 9.5218 7.96559 9.58874 8.1716L10.7971 11.8904C10.9467 12.3511 10.4195 12.7342 10.0276 12.4495L6.8642 10.1511C6.68896 10.0238 6.45166 10.0238 6.27642 10.1511L3.11298 12.4495C2.72112 12.7342 2.19388 12.3511 2.34356 11.8904L3.55189 8.1716C3.61882 7.96559 3.54549 7.7399 3.37025 7.61258L0.206808 5.31421C-0.185049 5.02951 0.0163404 4.4097 0.500702 4.4097H4.41093C4.62754 4.4097 4.81952 4.27022 4.88646 4.06421L6.09478 0.34536Z" fill="white"/>
</svg>
