<svg width="24" height="24" viewBox="0 0 24 24" fill="none" xmlns="http://www.w3.org/2000/svg">
<path fill-rule="evenodd" clip-rule="evenodd" d="M23.6766 19.2336H22.3128V20.1897C22.3128 20.3584 22.1582 20.499 21.9895 20.499H18.8822C18.6995 20.499 18.5589 20.3584 18.5589 20.1897V19.2336H16.6889V20.1897C16.6889 20.3584 16.5483 20.499 16.3656 20.499H13.2583C13.0756 20.499 12.935 20.3584 12.935 20.1897V19.2336H11.065V20.1897C11.065 20.3584 10.9244 20.499 10.7417 20.499H7.63445C7.45167 20.499 7.31107 20.3584 7.31107 20.1897V19.2336H5.44112V20.1897C5.44112 20.3584 5.30053 20.499 5.11775 20.499H2.01054C1.82777 20.499 1.68717 20.3584 1.68717 20.1897V19.2336H0.323374C0.140598 19.2336 0 19.093 0 18.9103V17.3778C0 17.209 0.140598 17.0684 0.323374 17.0684H1.68717V10.1651H0.323374C0.140598 10.1651 0 10.0245 0 9.84173V8.32327C0 8.1405 0.140598 7.9999 0.323374 7.9999H1.68717C1.68717 7.789 1.65905 7.02978 1.71529 6.90324L3.27592 3.6695C3.3884 3.43048 3.73989 3.43048 3.85237 3.6695L5.41301 6.90324C5.46924 7.02978 5.44112 7.789 5.44112 7.9999H7.31107C7.31107 7.789 7.28295 7.02978 7.33919 6.90324L8.89982 3.6695C9.0123 3.43048 9.3638 3.43048 9.47627 3.6695L11.0369 6.90324C11.0931 7.02978 11.065 7.789 11.065 7.9999H12.935C12.935 7.789 12.9069 7.02978 12.9631 6.90324L14.5237 3.6695C14.6362 3.43048 14.9877 3.43048 15.1002 3.6695L16.6467 6.90324C16.717 7.02978 16.6889 7.789 16.6889 7.9999H18.5589C18.5589 7.789 18.5308 7.02978 18.587 6.90324L20.1476 3.6695C20.2601 3.43048 20.5975 3.43048 20.7241 3.6695L22.2707 6.90324C22.341 7.02978 22.3128 7.789 22.3128 7.9999H23.6766C23.8453 7.9999 24 8.1405 24 8.32327V9.84173C24 10.0245 23.8453 10.1651 23.6766 10.1651H22.3128V17.0684H23.6766C23.8453 17.0684 24 17.209 24 17.3778V18.9103C24 19.093 23.8453 19.2336 23.6766 19.2336ZM4.79438 19.2336H2.33392V19.8663H4.79438V19.2336ZM2.33392 17.0684H4.79438V10.1651H2.33392V17.0684ZM5.44112 17.0684H7.31107V10.1651H5.44112V17.0684ZM2.33392 7.9999H4.79438V7.11414L3.55712 4.55526L2.33392 7.11414V7.9999ZM5.11775 18.5869H10.7417H23.3533V17.7011H0.632689V18.5869H5.11775ZM10.4183 19.2336H7.94376V19.8663H10.4183V19.2336ZM7.94376 17.0684H10.4183V10.1651H7.94376V17.0684ZM11.065 17.0684H12.935V10.1651H11.065V17.0684ZM7.94376 7.9999H10.4183V7.11414L9.18102 4.55526L7.94376 7.11414V7.9999ZM16.0422 19.2336H13.5677V19.8663H16.0422V19.2336ZM13.5677 17.0684H16.0422V10.1651H13.5677V17.0684ZM16.6889 17.0684H18.5589V10.1651H16.6889V17.0684ZM13.5677 7.9999H16.0422V7.11414L14.8049 4.55526L13.5677 7.11414V7.9999ZM21.6661 19.2336H19.1916V19.8663H21.6661V19.2336ZM19.1916 17.0684H21.6661V10.1651H19.1916V17.0684ZM21.6661 7.9999V7.11414L20.4288 4.55526L19.1916 7.11414V7.9999H21.6661ZM3.55712 16.2952C3.3884 16.2952 3.2478 16.1546 3.2478 15.9718V11.2618C3.2478 10.84 3.88049 10.84 3.88049 11.2618V15.9718C3.88049 16.1546 3.73989 16.2952 3.55712 16.2952ZM9.18102 16.2952C9.0123 16.2952 8.87171 16.1546 8.87171 15.9718V11.2618C8.87171 10.84 9.50439 10.84 9.50439 11.2618V15.9718C9.50439 16.1546 9.3638 16.2952 9.18102 16.2952ZM14.8049 16.2952C14.6362 16.2952 14.4956 16.1546 14.4956 15.9718V11.2618C14.4956 10.84 15.1283 10.84 15.1283 11.2618V15.9718C15.1283 16.1546 14.9877 16.2952 14.8049 16.2952ZM20.4288 16.2952C20.2601 16.2952 20.1054 16.1546 20.1054 15.9718V11.2618C20.1054 10.84 20.7522 10.84 20.7522 11.2618V15.9718C20.7522 16.1546 20.6116 16.2952 20.4288 16.2952ZM0.632689 9.51835H23.3533V8.63259H0.632689V9.51835Z" fill="#8C8C8C"/>
</svg>
