<svg width="20" height="20" viewBox="0 0 20 20" fill="none" xmlns="http://www.w3.org/2000/svg">
<g clip-path="url(#clip0_67_65)">
<path d="M3.22201 15.8042C3.06701 16.0708 2.78784 16.2208 2.49951 16.2208C2.35784 16.2208 2.21451 16.185 2.08284 16.1092C0.797845 15.3658 -0.000488281 13.9833 -0.000488281 12.5V5.83333C0.000345052 3.53583 1.86951 1.66667 4.16701 1.66667V0.833333C4.16701 0.373333 4.54034 0 5.00034 0C5.46034 0 5.83368 0.373333 5.83368 0.833333V1.66667H11.667V0.833333C11.667 0.373333 12.0395 0 12.5003 0C12.9612 0 13.3337 0.373333 13.3337 0.833333V1.66667C15.6312 1.66667 17.5003 3.53583 17.5003 5.83333V12.5C17.5003 12.96 17.1278 13.3333 16.667 13.3333C16.2062 13.3333 15.8337 12.96 15.8337 12.5V7.5H15.0003C14.5395 7.5 14.167 7.12667 14.167 6.66667C14.167 6.20667 14.5395 5.83333 15.0003 5.83333H15.8337C15.8337 4.455 14.712 3.33333 13.3337 3.33333H4.16701C2.78868 3.33333 1.66701 4.455 1.66701 5.83333H8.33368C8.79368 5.83333 9.16701 6.20667 9.16701 6.66667C9.16701 7.12667 8.79368 7.5 8.33368 7.5H1.66701V12.5C1.66701 13.39 2.14618 14.22 2.91701 14.6658C3.31534 14.8958 3.45284 15.4058 3.22201 15.8042ZM17.2987 15.4833L14.1745 14.3158V10.1117C14.1745 8.84833 13.2778 7.75 12.0887 7.55667C11.3545 7.4375 10.6153 7.64167 10.0562 8.1175C9.49618 8.59333 9.17451 9.28833 9.17451 10.0225V16.325L8.32868 15.6517C8.32284 15.6467 8.31534 15.6467 8.30951 15.6417C7.30034 14.7642 5.76868 14.8292 4.84868 15.8142C3.90701 16.8208 3.96034 18.4058 4.95701 19.3392L5.42201 19.7875C5.57701 19.9375 5.78451 20.0208 6.00034 20.0208C6.75034 20.0208 7.11868 19.1083 6.57868 18.5875L6.10534 18.1308C5.76951 17.8158 5.75201 17.2867 6.06701 16.9508C6.37951 16.6158 6.90701 16.6 7.24201 16.9108C7.25034 16.9183 9.48951 18.7033 9.48951 18.7033C9.74035 18.9033 10.0837 18.9408 10.3703 18.8025C10.6587 18.6633 10.842 18.3717 10.842 18.0517V10.02C10.842 9.775 10.9495 9.54333 11.1362 9.38417C11.3262 9.22333 11.5678 9.15667 11.8212 9.19833C12.207 9.26167 12.5087 9.66167 12.5087 10.1092V14.8917C12.5087 15.2392 12.7245 15.5508 13.0503 15.6725L16.7162 17.0425C17.6362 17.3858 18.2712 18.2408 18.3353 19.2192C18.3645 19.66 18.7312 19.9983 19.1662 19.9983C19.1845 19.9983 19.2028 19.9983 19.2212 19.9967C19.6803 19.9658 20.0287 19.5692 19.9987 19.1108C19.8912 17.4792 18.832 16.055 17.2987 15.4833Z" fill="white"/>
</g>
<defs>
<clipPath id="clip0_67_65">
<rect width="20" height="20" fill="white"/>
</clipPath>
</defs>
</svg>
