<svg width="12" height="12" viewBox="0 0 12 12" fill="none" xmlns="http://www.w3.org/2000/svg">
<g clip-path="url(#clip0_1_5712)">
<path d="M11.9996 5.62378C11.9273 4.45379 11.5142 3.33054 10.8112 2.39249C10.1082 1.45445 9.14609 0.742628 8.04345 0.344779C6.9408 -0.0530695 5.74584 -0.119551 4.60587 0.15353C3.4659 0.426611 2.43076 1.02732 1.62806 1.88159C0.825368 2.73587 0.290208 3.80636 0.0885587 4.96111C-0.113091 6.11586 0.027586 7.30438 0.493246 8.38014C0.958906 9.4559 1.72919 10.3719 2.70914 11.0152C3.68909 11.6584 4.83587 12.0009 6.00809 12.0003H9.49959C10.1624 11.9996 10.7979 11.736 11.2666 11.2673C11.7353 10.7986 11.9989 10.1631 11.9996 9.50028V5.62378ZM10.9996 9.50028C10.9996 9.89811 10.8416 10.2796 10.5602 10.5609C10.2789 10.8422 9.89741 11.0003 9.49959 11.0003H6.00809C5.30255 11 4.60501 10.8509 3.96094 10.5629C3.31686 10.2749 2.74072 9.8544 2.27009 9.32878C1.79717 8.80342 1.44205 8.18302 1.22853 7.50918C1.01502 6.83533 0.948037 6.12363 1.03209 5.42178C1.16481 4.31475 1.66218 3.28338 2.44581 2.49024C3.22943 1.69711 4.25474 1.18734 5.36009 1.04128C5.57571 1.01426 5.79278 1.00056 6.01009 1.00028C7.17533 0.997104 8.30449 1.40423 9.19959 2.15028C9.72235 2.58475 10.1514 3.12086 10.4609 3.7261C10.7703 4.33134 10.9535 4.9931 10.9996 5.67128V9.50028Z" fill="white"/>
<path d="M4 4.5H6C6.13261 4.5 6.25979 4.44732 6.35355 4.35355C6.44732 4.25979 6.5 4.13261 6.5 4C6.5 3.86739 6.44732 3.74021 6.35355 3.64645C6.25979 3.55268 6.13261 3.5 6 3.5H4C3.86739 3.5 3.74021 3.55268 3.64645 3.64645C3.55268 3.74021 3.5 3.86739 3.5 4C3.5 4.13261 3.55268 4.25979 3.64645 4.35355C3.74021 4.44732 3.86739 4.5 4 4.5Z" fill="white"/>
<path d="M8 5.5H4C3.86739 5.5 3.74021 5.55268 3.64645 5.64645C3.55268 5.74021 3.5 5.86739 3.5 6C3.5 6.13261 3.55268 6.25979 3.64645 6.35355C3.74021 6.44732 3.86739 6.5 4 6.5H8C8.13261 6.5 8.25979 6.44732 8.35355 6.35355C8.44732 6.25979 8.5 6.13261 8.5 6C8.5 5.86739 8.44732 5.74021 8.35355 5.64645C8.25979 5.55268 8.13261 5.5 8 5.5Z" fill="white"/>
<path d="M8 7.5H4C3.86739 7.5 3.74021 7.55268 3.64645 7.64645C3.55268 7.74021 3.5 7.86739 3.5 8C3.5 8.13261 3.55268 8.25979 3.64645 8.35355C3.74021 8.44732 3.86739 8.5 4 8.5H8C8.13261 8.5 8.25979 8.44732 8.35355 8.35355C8.44732 8.25979 8.5 8.13261 8.5 8C8.5 7.86739 8.44732 7.74021 8.35355 7.64645C8.25979 7.55268 8.13261 7.5 8 7.5Z" fill="white"/>
</g>
<defs>
<clipPath id="clip0_1_5712">
<rect width="12" height="12" fill="white"/>
</clipPath>
</defs>
</svg>
