<svg width="12" height="12" viewBox="0 0 12 12" fill="none" xmlns="http://www.w3.org/2000/svg">
<g clip-path="url(#clip0_1_5700)">
<path d="M12 3.5V4C12 4.276 11.7765 4.5 11.5 4.5C11.2235 4.5 11 4.276 11 4V3.5C11 2.673 10.327 2 9.5 2H2.5C1.673 2 1 2.673 1 3.5V8.5C1 9.327 1.673 10 2.5 10H4C4.2765 10 4.5 10.224 4.5 10.5C4.5 10.776 4.2765 11 4 11H2.5C1.1215 11 0 9.8785 0 8.5V3.5C0 2.1215 1.1215 1 2.5 1H9.5C10.8785 1 12 2.1215 12 3.5ZM7.5 4.5H9.5C9.7765 4.5 10 4.276 10 4C10 3.724 9.7765 3.5 9.5 3.5H7.5C7.2235 3.5 7 3.724 7 4C7 4.276 7.2235 4.5 7.5 4.5ZM11.5605 5.9395C11.8435 6.2225 12 6.5995 12 7C12 7.4005 11.8435 7.7775 11.5605 8.061L8.207 11.4145C7.8295 11.792 7.327 12.0005 6.793 12.0005H6C5.7235 12.0005 5.5 11.7765 5.5 11.5005V10.7075C5.5 10.1735 5.708 9.671 6.086 9.2935L9.4395 5.94C10.0245 5.355 10.9755 5.355 11.5605 5.94V5.9395ZM11 7C11 6.8665 10.948 6.741 10.8535 6.6465C10.658 6.451 10.342 6.4515 10.1465 6.6465L6.793 10C6.607 10.1865 6.5 10.444 6.5 10.707V11H6.793C7.06 11 7.311 10.896 7.5 10.707L10.8535 7.3535C10.948 7.259 11 7.1335 11 7ZM4.5 7.5H3.366C3.188 7.5 3.022 7.404 2.9325 7.25C2.795 7.0105 2.4895 6.928 2.2495 7.0675C2.0105 7.206 1.9285 7.5115 2.0675 7.7505C2.3345 8.213 2.8325 8.5 3.3665 8.5H3.5005C3.5005 8.776 3.724 9 4.0005 9C4.277 9 4.5005 8.776 4.5005 8.5C5.3275 8.5 6.0005 7.827 6.0005 7C6.0005 6.32 5.5135 5.745 4.843 5.6335L3.3225 5.38C3.136 5.349 3.0005 5.189 3.0005 5C3.0005 4.7245 3.2245 4.5 3.5005 4.5H4.6345C4.8125 4.5 4.9785 4.596 5.068 4.75C5.2055 4.989 5.5105 5.071 5.751 4.9325C5.99 4.794 6.072 4.4885 5.933 4.2495C5.666 3.787 5.168 3.4995 4.634 3.4995H4.5C4.5 3.2235 4.2765 2.9995 4 2.9995C3.7235 2.9995 3.5 3.2235 3.5 3.4995C2.673 3.4995 2 4.1725 2 4.9995C2 5.6795 2.487 6.2545 3.1575 6.366L4.678 6.6195C4.8645 6.6505 5 6.8105 5 6.9995C5 7.275 4.776 7.4995 4.5 7.4995V7.5ZM7 6C7 6.276 7.224 6.5 7.5 6.5C7.776 6.5 8 6.276 8 6C8 5.724 7.776 5.5 7.5 5.5C7.224 5.5 7 5.724 7 6Z" fill="#AAAAAA"/>
</g>
<defs>
<clipPath id="clip0_1_5700">
<rect width="12" height="12" fill="white"/>
</clipPath>
</defs>
</svg>
