<svg width="20" height="20" viewBox="0 0 20 20" fill="none" xmlns="http://www.w3.org/2000/svg">
<g clip-path="url(#clip0_67_69)">
<path d="M20 5.83268V6.66602C20 7.12602 19.6275 7.49935 19.1667 7.49935C18.7058 7.49935 18.3333 7.12602 18.3333 6.66602V5.83268C18.3333 4.45435 17.2117 3.33268 15.8333 3.33268H4.16667C2.78833 3.33268 1.66667 4.45435 1.66667 5.83268V14.166C1.66667 15.5443 2.78833 16.666 4.16667 16.666H6.66667C7.1275 16.666 7.5 17.0393 7.5 17.4993C7.5 17.9594 7.1275 18.3327 6.66667 18.3327H4.16667C1.86917 18.3327 0 16.4635 0 14.166V5.83268C0 3.53518 1.86917 1.66602 4.16667 1.66602H15.8333C18.1308 1.66602 20 3.53518 20 5.83268ZM12.5 7.49935H15.8333C16.2942 7.49935 16.6667 7.12602 16.6667 6.66602C16.6667 6.20602 16.2942 5.83268 15.8333 5.83268H12.5C12.0392 5.83268 11.6667 6.20602 11.6667 6.66602C11.6667 7.12602 12.0392 7.49935 12.5 7.49935ZM19.2675 9.89852C19.7392 10.3702 20 10.9985 20 11.666C20 12.3335 19.7392 12.9618 19.2675 13.4343L13.6783 19.0235C13.0492 19.6527 12.2117 20.0002 11.3217 20.0002H10C9.53917 20.0002 9.16667 19.6269 9.16667 19.1668V17.8452C9.16667 16.9552 9.51333 16.1177 10.1433 15.4885L15.7325 9.89935C16.7075 8.92435 18.2925 8.92435 19.2675 9.89935V9.89852ZM18.3333 11.666C18.3333 11.4435 18.2467 11.2343 18.0892 11.0768C17.7633 10.751 17.2367 10.7518 16.9108 11.0768L11.3217 16.666C11.0117 16.9768 10.8333 17.406 10.8333 17.8443V18.3327H11.3217C11.7667 18.3327 12.185 18.1593 12.5 17.8443L18.0892 12.2552C18.2467 12.0977 18.3333 11.8885 18.3333 11.666ZM7.5 12.4993H5.61C5.31333 12.4993 5.03667 12.3393 4.8875 12.0827C4.65833 11.6835 4.14917 11.546 3.74917 11.7785C3.35083 12.0093 3.21417 12.5185 3.44583 12.9169C3.89083 13.6877 4.72083 14.166 5.61083 14.166H5.83417C5.83417 14.626 6.20667 14.9993 6.6675 14.9993C7.12833 14.9993 7.50083 14.626 7.50083 14.166C8.87917 14.166 10.0008 13.0443 10.0008 11.666C10.0008 10.5327 9.18917 9.57435 8.07167 9.38852L5.5375 8.96602C5.22667 8.91435 5.00083 8.64768 5.00083 8.33268C5.00083 7.87352 5.37417 7.49935 5.83417 7.49935H7.72417C8.02083 7.49935 8.2975 7.65935 8.44667 7.91602C8.67583 8.31435 9.18417 8.45102 9.585 8.22018C9.98333 7.98935 10.12 7.48018 9.88833 7.08185C9.44333 6.31102 8.61333 5.83185 7.72333 5.83185H7.5C7.5 5.37185 7.1275 4.99852 6.66667 4.99852C6.20583 4.99852 5.83333 5.37185 5.83333 5.83185C4.455 5.83185 3.33333 6.95352 3.33333 8.33185C3.33333 9.46518 4.145 10.4235 5.2625 10.6093L7.79667 11.0318C8.1075 11.0835 8.33333 11.3502 8.33333 11.6652C8.33333 12.1243 7.96 12.4985 7.5 12.4985V12.4993ZM11.6667 9.99935C11.6667 10.4593 12.04 10.8327 12.5 10.8327C12.96 10.8327 13.3333 10.4593 13.3333 9.99935C13.3333 9.53935 12.96 9.16602 12.5 9.16602C12.04 9.16602 11.6667 9.53935 11.6667 9.99935Z" fill="#8C8C8C"/>
</g>
<defs>
<clipPath id="clip0_67_69">
<rect width="20" height="20" fill="white"/>
</clipPath>
</defs>
</svg>
