<svg width="16" height="16" viewBox="0 0 16 16" fill="none" xmlns="http://www.w3.org/2000/svg">
<path d="M12.6667 10H12C11.6313 10 11.3333 9.702 11.3333 9.33333C11.3333 8.96467 11.6313 8.66667 12 8.66667H12.6667C13.0353 8.66667 13.3333 8.96467 13.3333 9.33333C13.3333 9.702 13.0353 10 12.6667 10ZM13.3333 12C13.3333 11.6313 13.0353 11.3333 12.6667 11.3333H12C11.6313 11.3333 11.3333 11.6313 11.3333 12C11.3333 12.3687 11.6313 12.6667 12 12.6667H12.6667C13.0353 12.6667 13.3333 12.3687 13.3333 12ZM10.6667 4C10.6667 3.63133 10.3687 3.33333 10 3.33333H9.33333C8.96467 3.33333 8.66667 3.63133 8.66667 4C8.66667 4.36867 8.96467 4.66667 9.33333 4.66667H10C10.3687 4.66667 10.6667 4.36867 10.6667 4ZM13.3333 4C13.3333 3.63133 13.0353 3.33333 12.6667 3.33333H12C11.6313 3.33333 11.3333 3.63133 11.3333 4C11.3333 4.36867 11.6313 4.66667 12 4.66667H12.6667C13.0353 4.66667 13.3333 4.36867 13.3333 4ZM13.3333 6.66667C13.3333 6.298 13.0353 6 12.6667 6H12C11.6313 6 11.3333 6.298 11.3333 6.66667C11.3333 7.03533 11.6313 7.33333 12 7.33333H12.6667C13.0353 7.33333 13.3333 7.03533 13.3333 6.66667ZM16 12.6667V3.33333C16 1.49533 14.5047 0 12.6667 0H9.33333C7.49533 0 6 1.49533 6 3.33333C6 3.702 6.298 4 6.66667 4C7.03533 4 7.33333 3.702 7.33333 3.33333C7.33333 2.23067 8.23067 1.33333 9.33333 1.33333H12.6667C13.7693 1.33333 14.6667 2.23067 14.6667 3.33333V12.6667C14.6667 13.7693 13.7693 14.6667 12.6667 14.6667H12C11.6313 14.6667 11.3333 14.9647 11.3333 15.3333C11.3333 15.702 11.6313 16 12 16H12.6667C14.5047 16 16 14.5047 16 12.6667ZM10.6667 13V10.232C10.6667 9.2 10.2007 8.244 9.38733 7.60667L7.38733 6.04067C6.178 5.09533 4.48867 5.09467 3.27933 6.04067L1.27933 7.606C0.466 8.24267 0 9.19933 0 10.2313V12.9993C0 14.6533 1.346 15.9993 3 15.9993H7.66667C9.32067 15.9993 10.6667 14.654 10.6667 13ZM6.566 7.09133L8.566 8.65667C9.05333 9.03867 9.33333 9.61333 9.33333 10.232V13C9.33333 13.9193 8.586 14.6667 7.66667 14.6667H3C2.08067 14.6667 1.33333 13.9193 1.33333 13V10.232C1.33333 9.61267 1.61333 9.03867 2.10067 8.65667L4.10067 7.092C4.46333 6.808 4.898 6.666 5.33333 6.666C5.76867 6.666 6.20333 6.808 6.566 7.09133ZM6.66667 12V10.6667C6.66667 10.2987 6.368 10 6 10H4.66667C4.29867 10 4 10.2987 4 10.6667V12C4 12.368 4.29867 12.6667 4.66667 12.6667H6C6.368 12.6667 6.66667 12.368 6.66667 12Z" fill="white"/>
</svg>
